<?xml version="1.0" encoding="UTF-8" standalone="no" ?>
<COLLADA xmlns="http://www.collada.org/2005/11/COLLADASchema" version="1.4.1">
    <asset>
        <contributor>
            <authoring_tool>SketchUp 24.0.594</authoring_tool>
        </contributor>
        <created>2025-11-12T16:24:55Z</created>
        <modified>2025-11-12T16:24:55Z</modified>
        <unit meter="0.0254" name="inch" />
        <up_axis>Z_UP</up_axis>
    </asset>
    <library_cameras>
        <camera id="ID1" name="skp_camera_Last_Saved_SketchUp_View">
            <optics>
                <technique_common>
                    <perspective>
                        <yfov>35</yfov>
                        <aspect_ratio>0</aspect_ratio>
                        <znear>1</znear>
                        <zfar>1000</zfar>
                    </perspective>
                </technique_common>
            </optics>
        </camera>
    </library_cameras>
    <library_visual_scenes>
        <visual_scene id="ID2">
            <node name="SketchUp">
                <node name="skp_camera_Last_Saved_SketchUp_View">
                    <matrix>0.8528184 -0.1024658 0.5120561 503.7721 0.5222075 0.1673372 -0.8362402 -696.2997 2.775558e-17 0.9805605 0.1962167 397.9544 0 0 0 1</matrix>
                    <instance_camera url="#ID1" />
                </node>
                <node id="ID3" name="group_0">
                    <matrix>1 0 0 -39.37008 0 1 0 -39.37008 0 0 1 0 0 0 0 1</matrix>
                    <instance_geometry url="#ID4">
                        <bind_material>
                            <technique_common>
                                <instance_material symbol="Material2" target="#ID5">
                                    <bind_vertex_input semantic="UVSET0" input_semantic="TEXCOORD" input_set="0" />
                                </instance_material>
                                <instance_material symbol="Material3" target="#ID11">
                                    <bind_vertex_input semantic="UVSET0" input_semantic="TEXCOORD" input_set="0" />
                                </instance_material>
                                <instance_material symbol="Material4" target="#ID12">
                                    <bind_vertex_input semantic="UVSET0" input_semantic="TEXCOORD" input_set="0" />
                                </instance_material>
                                <instance_material symbol="Material5" target="#ID14">
                                    <bind_vertex_input semantic="UVSET0" input_semantic="TEXCOORD" input_set="0" />
                                </instance_material>
                            </technique_common>
                        </bind_material>
                    </instance_geometry>
                    <instance_geometry url="#ID18">
                        <bind_material>
                            <technique_common>
                                <instance_material symbol="Material2" target="#ID5">
                                    <bind_vertex_input semantic="UVSET0" input_semantic="TEXCOORD" input_set="0" />
                                </instance_material>
                                <instance_material symbol="Material3" target="#ID11">
                                    <bind_vertex_input semantic="UVSET0" input_semantic="TEXCOORD" input_set="0" />
                                </instance_material>
                                <instance_material symbol="Material4" target="#ID12">
                                    <bind_vertex_input semantic="UVSET0" input_semantic="TEXCOORD" input_set="0" />
                                </instance_material>
                                <instance_material symbol="Material5" target="#ID14">
                                    <bind_vertex_input semantic="UVSET0" input_semantic="TEXCOORD" input_set="0" />
                                </instance_material>
                            </technique_common>
                        </bind_material>
                    </instance_geometry>
                    <instance_geometry url="#ID24">
                        <bind_material>
                            <technique_common>
                                <instance_material symbol="Material2" target="#ID5">
                                    <bind_vertex_input semantic="UVSET0" input_semantic="TEXCOORD" input_set="0" />
                                </instance_material>
                                <instance_material symbol="Material3" target="#ID11">
                                    <bind_vertex_input semantic="UVSET0" input_semantic="TEXCOORD" input_set="0" />
                                </instance_material>
                                <instance_material symbol="Material4" target="#ID12">
                                    <bind_vertex_input semantic="UVSET0" input_semantic="TEXCOORD" input_set="0" />
                                </instance_material>
                            </technique_common>
                        </bind_material>
                    </instance_geometry>
                </node>
            </node>
        </visual_scene>
    </library_visual_scenes>
    <library_geometries>
        <geometry id="ID4">
            <mesh>
                <source id="ID7">
                    <float_array id="ID16" count="738">309.406 44.90551 332.3369 310.8386 44.7169 302.4944 309.406 44.90551 302.4944 310.8386 44.7169 332.3369 310.8386 44.7169 332.3369 309.406 44.90551 332.3369 310.8386 44.7169 302.4944 309.406 44.90551 302.4944 310.8386 44.7169 302.4944 309.406 44.90551 302.4944 309.406 44.90551 332.3369 310.8386 44.7169 332.3369 304.0592 40.80275 302.4944 304.0592 37.9374 302.4944 303.8705 39.37008 302.4944 304.6121 42.1378 302.4944 304.6121 36.60236 302.4944 305.4918 43.28422 302.4944 305.4918 35.45594 302.4944 306.6383 44.1639 302.4944 306.6383 34.57625 302.4944 307.9733 44.7169 302.4944 307.9733 34.02326 302.4944 309.406 44.90551 302.4944 309.406 33.83465 302.4944 310.8386 44.7169 302.4944 310.8386 34.02326 302.4944 312.1737 44.1639 302.4944 312.1737 34.57625 302.4944 313.3201 43.28422 302.4944 313.3201 35.45594 302.4944 314.1998 42.1378 302.4944 314.1998 36.60236 302.4944 314.7528 40.80275 302.4944 314.7528 37.9374 302.4944 314.9414 39.37008 302.4944 314.9414 39.37008 302.4944 314.7528 40.80275 302.4944 314.7528 37.9374 302.4944 314.1998 36.60236 302.4944 314.1998 42.1378 302.4944 313.3201 35.45594 302.4944 313.3201 43.28422 302.4944 312.1737 34.57625 302.4944 312.1737 44.1639 302.4944 310.8386 34.02326 302.4944 310.8386 44.7169 302.4944 309.406 33.83465 302.4944 309.406 44.90551 302.4944 307.9733 34.02326 302.4944 307.9733 44.7169 302.4944 306.6383 34.57625 302.4944 306.6383 44.1639 302.4944 305.4918 35.45594 302.4944 305.4918 43.28422 302.4944 304.6121 36.60236 302.4944 304.6121 42.1378 302.4944 304.0592 37.9374 302.4944 304.0592 40.80275 302.4944 303.8705 39.37008 302.4944 303.8705 39.37008 302.4944 304.0592 37.9374 302.4944 304.0592 40.80275 302.4944 304.6121 42.1378 302.4944 305.4918 43.28422 302.4944 306.6383 44.1639 302.4944 307.9733 44.7169 302.4944 312.1737 44.1639 302.4944 313.3201 43.28422 302.4944 314.1998 42.1378 302.4944 314.7528 40.80275 302.4944 314.9414 39.37008 302.4944 314.7528 37.9374 302.4944 314.1998 36.60236 302.4944 313.3201 35.45594 302.4944 312.1737 34.57625 302.4944 310.8386 34.02326 302.4944 309.406 33.83465 302.4944 307.9733 34.02326 302.4944 306.6383 34.57625 302.4944 305.4918 35.45594 302.4944 304.6121 36.60236 302.4944 307.9733 44.7169 332.3369 307.9733 44.7169 302.4944 307.9733 44.7169 332.3369 307.9733 44.7169 302.4944 307.9733 44.7169 332.3369 304.0592 37.9374 332.3369 304.0592 40.80275 332.3369 303.8705 39.37008 332.3369 304.6121 36.60236 332.3369 304.6121 42.1378 332.3369 305.4918 35.45594 332.3369 305.4918 43.28422 332.3369 306.6383 34.57625 332.3369 306.6383 44.1639 332.3369 307.9733 34.02326 332.3369 307.9733 44.7169 332.3369 309.406 33.83465 332.3369 309.406 44.90551 332.3369 310.8386 34.02326 332.3369 310.8386 44.7169 332.3369 312.1737 34.57625 332.3369 312.1737 44.1639 332.3369 313.3201 35.45594 332.3369 313.3201 43.28422 332.3369 314.1998 36.60236 332.3369 314.1998 42.1378 332.3369 314.7528 37.9374 332.3369 314.7528 40.80275 332.3369 314.9414 39.37008 332.3369 314.9414 39.37008 332.3369 314.7528 37.9374 332.3369 314.7528 40.80275 332.3369 314.1998 42.1378 332.3369 314.1998 36.60236 332.3369 313.3201 43.28422 332.3369 313.3201 35.45594 332.3369 312.1737 44.1639 332.3369 312.1737 34.57625 332.3369 310.8386 44.7169 332.3369 310.8386 34.02326 332.3369 309.406 44.90551 332.3369 309.406 33.83465 332.3369 307.9733 44.7169 332.3369 307.9733 34.02326 332.3369 306.6383 44.1639 332.3369 306.6383 34.57625 332.3369 305.4918 43.28422 332.3369 305.4918 35.45594 332.3369 304.6121 42.1378 332.3369 304.6121 36.60236 332.3369 304.0592 40.80275 332.3369 304.0592 37.9374 332.3369 303.8705 39.37008 332.3369 303.8705 39.37008 332.3369 304.0592 37.9374 332.3369 304.6121 36.60236 332.3369 305.4918 35.45594 332.3369 306.6383 34.57625 332.3369 307.9733 34.02326 332.3369 309.406 33.83465 332.3369 310.8386 34.02326 332.3369 312.1737 34.57625 332.3369 313.3201 35.45594 332.3369 314.1998 36.60236 332.3369 314.7528 37.9374 332.3369 314.9414 39.37008 332.3369 314.7528 40.80275 332.3369 314.1998 42.1378 332.3369 313.3201 43.28422 332.3369 312.1737 44.1639 332.3369 306.6383 44.1639 332.3369 305.4918 43.28422 332.3369 304.6121 42.1378 332.3369 304.0592 40.80275 332.3369 312.1737 44.1639 302.4944 312.1737 44.1639 332.3369 312.1737 44.1639 332.3369 312.1737 44.1639 302.4944 303.8705 39.37008 332.3369 304.0592 37.9374 302.4944 304.0592 37.9374 332.3369 303.8705 39.37008 302.4944 303.8705 39.37008 325.4222 303.8705 39.37008 325.4222 303.8705 39.37008 332.3369 303.8705 39.37008 302.4944 304.0592 37.9374 302.4944 304.0592 37.9374 332.3369 303.8705 39.37008 325.4222 304.0592 40.80275 332.3369 304.0592 40.80275 302.4944 304.0592 40.80275 302.4944 304.0592 40.80275 332.3369 304.6121 42.1378 332.3369 304.6121 42.1378 302.4944 304.6121 42.1378 302.4944 304.6121 42.1378 332.3369 305.4918 43.28422 332.3369 305.4918 43.28422 302.4944 305.4918 43.28422 302.4944 305.4918 43.28422 332.3369 306.6383 44.1639 302.4944 306.6383 44.1639 332.3369 306.6383 44.1639 332.3369 306.6383 44.1639 302.4944 313.3201 43.28422 302.4944 313.3201 43.28422 332.3369 313.3201 43.28422 332.3369 313.3201 43.28422 302.4944 314.1998 42.1378 332.3369 314.1998 42.1378 302.4944 314.1998 42.1378 332.3369 314.1998 42.1378 302.4944 314.7528 40.80275 332.3369 314.7528 40.80275 302.4944 314.7528 40.80275 332.3369 314.7528 40.80275 302.4944 314.9414 39.37008 327.9781 314.9414 39.37008 302.4944 314.9414 39.37008 332.3369 314.9414 39.37008 332.3369 314.9414 39.37008 327.9781 314.9414 39.37008 302.4944 314.9414 39.37008 327.9781 314.7528 37.9374 332.3369 314.7528 37.9374 302.4944 314.7528 37.9374 332.3369 314.7528 37.9374 302.4944 314.1998 36.60236 332.3369 314.1998 36.60236 302.4944 314.1998 36.60236 332.3369 314.1998 36.60236 302.4944 313.3201 35.45594 332.3369 313.3201 35.45594 302.4944 313.3201 35.45594 332.3369 313.3201 35.45594 302.4944 312.1737 34.57625 302.4944 312.1737 34.57625 332.3369 312.1737 34.57625 332.3369 312.1737 34.57625 302.4944 310.8386 34.02326 302.4944 310.8386 34.02326 332.3369 310.8386 34.02326 332.3369 310.8386 34.02326 302.4944 309.406 33.83465 302.4944 309.406 33.83465 332.3369 309.406 33.83465 332.3369 309.406 33.83465 302.4944 307.9733 34.02326 302.4944 307.9733 34.02326 332.3369 307.9733 34.02326 332.3369 307.9733 34.02326 302.4944 306.6383 34.57625 302.4944 306.6383 34.57625 332.3369 306.6383 34.57625 332.3369 306.6383 34.57625 302.4944 305.4918 35.45594 302.4944 305.4918 35.45594 332.3369 305.4918 35.45594 332.3369 305.4918 35.45594 302.4944 304.6121 36.60236 332.3369 304.6121 36.60236 302.4944 304.6121 36.60236 302.4944 304.6121 36.60236 332.3369</float_array>
                    <technique_common>
                        <accessor count="246" source="#ID16" stride="3">
                            <param name="X" type="float" />
                            <param name="Y" type="float" />
                            <param name="Z" type="float" />
                        </accessor>
                    </technique_common>
                </source>
                <source id="ID8">
                    <float_array id="ID17" count="738">8.322977e-15 1 0 0.258819 0.9659258 0 8.322977e-15 1 0 0.258819 0.9659258 0 -0.258819 -0.9659258 -0 -8.322977e-15 -1 -0 -0.258819 -0.9659258 -0 -8.322977e-15 -1 -0 0 0 0 0 0 0 0 0 0 0 0 0 0 0 -1 0 0 -1 0 0 -1 0 0 -1 0 0 -1 0 0 -1 0 0 -1 0 0 -1 0 0 -1 0 0 -1 0 0 -1 0 0 -1 0 0 -1 0 0 -1 0 0 -1 0 0 -1 0 0 -1 0 0 -1 0 0 -1 0 0 -1 0 0 -1 0 0 -1 0 0 -1 0 0 -1 -0 -0 1 -0 -0 1 -0 -0 1 -0 -0 1 -0 -0 1 -0 -0 1 -0 -0 1 -0 -0 1 -0 -0 1 -0 -0 1 -0 -0 1 -0 -0 1 -0 -0 1 -0 -0 1 -0 -0 1 -0 -0 1 -0 -0 1 -0 -0 1 -0 -0 1 -0 -0 1 -0 -0 1 -0 -0 1 -0 -0 1 -0 -0 1 0 0 0 0 0 0 0 0 0 0 0 0 0 0 0 0 0 0 0 0 0 0 0 0 0 0 0 0 0 0 0 0 0 0 0 0 0 0 0 0 0 0 0 0 0 0 0 0 0 0 0 0 0 0 0 0 0 0 0 0 0 0 0 0 0 0 -0.258819 0.9659258 0 -0.258819 0.9659258 0 0.258819 -0.9659258 -0 0.258819 -0.9659258 -0 0 0 0 0 0 1 0 0 1 0 0 1 0 0 1 0 0 1 0 0 1 0 0 1 0 0 1 0 0 1 0 0 1 0 0 1 0 0 1 0 0 1 0 0 1 0 0 1 0 0 1 0 0 1 0 0 1 0 0 1 0 0 1 0 0 1 0 0 1 0 0 1 0 0 1 -0 -0 -1 -0 -0 -1 -0 -0 -1 -0 -0 -1 -0 -0 -1 -0 -0 -1 -0 -0 -1 -0 -0 -1 -0 -0 -1 -0 -0 -1 -0 -0 -1 -0 -0 -1 -0 -0 -1 -0 -0 -1 -0 -0 -1 -0 -0 -1 -0 -0 -1 -0 -0 -1 -0 -0 -1 -0 -0 -1 -0 -0 -1 -0 -0 -1 -0 -0 -1 -0 -0 -1 0 0 0 0 0 0 0 0 0 0 0 0 0 0 0 0 0 0 0 0 0 0 0 0 0 0 0 0 0 0 0 0 0 0 0 0 0 0 0 0 0 0 0 0 0 0 0 0 0 0 0 0 0 0 0 0 0 0 0 0 0 0 0 0.5 0.8660254 0 0.5 0.8660254 0 -0.5 -0.8660254 -0 -0.5 -0.8660254 -0 -1 -2.138666e-16 -9.659095e-20 -0.9659258 -0.258819 9.659095e-20 -0.9659258 -0.258819 9.659095e-20 -1 -2.138666e-16 -9.659095e-20 -1 8.831088e-10 -9.659095e-20 1 -8.831088e-10 9.659095e-20 1 2.138666e-16 9.659095e-20 1 2.138666e-16 9.659095e-20 0.9659258 0.258819 -9.659095e-20 0.9659258 0.258819 -9.659095e-20 0 0 0 -0.9659258 0.258819 -1.931819e-19 -0.9659258 0.258819 -1.931819e-19 0.9659258 -0.258819 1.931819e-19 0.9659258 -0.258819 1.931819e-19 -0.8660254 0.5 0 -0.8660254 0.5 0 0.8660254 -0.5 -0 0.8660254 -0.5 -0 -0.7071068 0.7071068 0 -0.7071068 0.7071068 0 0.7071068 -0.7071068 -0 0.7071068 -0.7071068 -0 -0.5 0.8660254 0 -0.5 0.8660254 0 0.5 -0.8660254 -0 0.5 -0.8660254 -0 0.7071068 0.7071068 0 0.7071068 0.7071068 0 -0.7071068 -0.7071068 -0 -0.7071068 -0.7071068 -0 0.8660254 0.5 0 0.8660254 0.5 0 -0.8660254 -0.5 -0 -0.8660254 -0.5 -0 0.9659258 0.258819 -3.269831e-19 0.9659258 0.258819 -3.269831e-19 -0.9659258 -0.258819 3.269831e-19 -0.9659258 -0.258819 3.269831e-19 1 -3.122261e-10 3.269831e-19 1 1.514889e-16 3.269831e-19 1 1.514889e-16 3.269831e-19 -1 -1.514889e-16 -3.269831e-19 -1 3.122261e-10 -3.269831e-19 -1 -1.514889e-16 -3.269831e-19 0 0 0 0.9659258 -0.258819 6.539661e-19 0.9659258 -0.258819 6.539661e-19 -0.9659258 0.258819 -6.539661e-19 -0.9659258 0.258819 -6.539661e-19 0.8660254 -0.5 0 0.8660254 -0.5 0 -0.8660254 0.5 -0 -0.8660254 0.5 -0 0.7071068 -0.7071068 0 0.7071068 -0.7071068 0 -0.7071068 0.7071068 -0 -0.7071068 0.7071068 -0 0.5 -0.8660254 0 0.5 -0.8660254 0 -0.5 0.8660254 -0 -0.5 0.8660254 -0 0.258819 -0.9659258 0 0.258819 -0.9659258 0 -0.258819 0.9659258 -0 -0.258819 0.9659258 -0 7.405132e-15 -1 0 7.405132e-15 -1 0 -7.405132e-15 1 -0 -7.405132e-15 1 -0 -0.258819 -0.9659258 0 -0.258819 -0.9659258 0 0.258819 0.9659258 -0 0.258819 0.9659258 -0 -0.5 -0.8660254 0 -0.5 -0.8660254 0 0.5 0.8660254 -0 0.5 0.8660254 -0 -0.7071068 -0.7071068 0 -0.7071068 -0.7071068 0 0.7071068 0.7071068 -0 0.7071068 0.7071068 -0 -0.8660254 -0.5 0 -0.8660254 -0.5 0 0.8660254 0.5 -0 0.8660254 0.5 -0</float_array>
                    <technique_common>
                        <accessor count="246" source="#ID17" stride="3">
                            <param name="X" type="float" />
                            <param name="Y" type="float" />
                            <param name="Z" type="float" />
                        </accessor>
                    </technique_common>
                </source>
                <vertices id="ID9">
                    <input semantic="POSITION" source="#ID7" />
                    <input semantic="NORMAL" source="#ID8" />
                </vertices>
                <triangles count="96" material="Material2">
                    <input offset="0" semantic="VERTEX" source="#ID9" />
                    <p>0 1 2 1 0 3 12 13 14 13 12 15 13 15 16 16 15 17 16 17 18 18 17 19 18 19 20 20 19 21 20 21 22 22 21 23 22 23 24 24 23 25 24 25 26 26 25 27 26 27 28 28 27 29 28 29 30 30 29 31 30 31 32 32 31 33 32 33 34 34 33 35 82 2 83 2 82 0 87 88 89 88 87 90 88 90 91 91 90 92 91 92 93 93 92 94 93 94 95 95 94 96 95 96 97 97 96 98 97 98 99 99 98 100 99 100 101 101 100 102 101 102 103 103 102 104 103 104 105 105 104 106 105 106 107 107 106 108 107 108 109 109 108 110 3 156 1 156 3 157 160 161 162 161 160 163 163 160 164 171 164 160 164 171 163 163 171 172 175 172 171 172 175 176 179 176 175 176 179 180 179 183 180 183 179 184 184 83 183 83 184 82 157 187 156 187 157 188 187 191 192 191 187 188 192 195 196 195 192 191 196 199 200 199 196 201 201 196 195 200 206 207 206 200 201 201 200 199 207 210 211 210 207 206 211 214 215 214 211 210 214 218 215 218 214 219 219 222 218 222 219 223 223 226 222 226 223 227 227 230 226 230 227 231 231 234 230 234 231 235 235 238 234 238 235 239 242 238 239 238 242 243 162 243 242 243 162 161</p>
                </triangles>
                <triangles count="96" material="Material3">
                    <input offset="0" semantic="VERTEX" source="#ID9" />
                    <p>4 5 6 7 6 5 36 37 38 38 37 39 37 40 39 39 40 41 40 42 41 41 42 43 42 44 43 43 44 45 44 46 45 45 46 47 46 48 47 47 48 49 48 50 49 49 50 51 50 52 51 51 52 53 52 54 53 53 54 55 54 56 55 55 56 57 56 58 57 59 57 58 5 84 7 85 7 84 111 112 113 113 112 114 112 115 114 114 115 116 115 117 116 116 117 118 117 119 118 118 119 120 119 121 120 120 121 122 121 123 122 122 123 124 123 125 124 124 125 126 125 127 126 126 127 128 127 129 128 128 129 130 129 131 130 130 131 132 131 133 132 134 132 133 158 4 159 6 159 4 165 166 167 167 166 168 169 168 166 173 174 167 167 174 165 166 165 174 177 178 173 174 173 178 181 182 177 178 177 182 185 182 186 181 186 182 84 185 85 186 85 185 189 158 190 159 190 158 189 190 193 194 193 190 193 194 197 198 197 194 197 198 202 202 198 203 204 203 198 203 204 202 202 204 208 209 208 204 208 209 212 213 212 209 212 213 216 217 216 213 220 216 221 217 221 216 224 220 225 221 225 220 228 224 229 225 229 224 232 228 233 229 233 228 236 232 237 233 237 232 240 236 241 237 241 236 244 245 241 240 241 245 168 169 244 245 244 169</p>
                </triangles>
                <lines count="48" material="Material4">
                    <input offset="0" semantic="VERTEX" source="#ID9" />
                    <p>8 9 11 10 60 61 62 60 63 62 64 63 65 64 66 65 9 66 67 8 68 67 69 68 70 69 71 70 72 71 73 72 74 73 75 74 76 75 77 76 78 77 79 78 80 79 81 80 61 81 10 86 135 136 136 137 137 138 138 139 139 140 140 141 141 142 142 143 143 144 144 145 145 146 146 147 147 148 148 149 149 150 150 151 151 11 86 152 152 153 153 154 154 155 155 135</p>
                </lines>
                <lines count="26" material="Material5">
                    <input offset="0" semantic="VERTEX" source="#ID9" />
                    <p />
                </lines>
            </mesh>
        </geometry>
        <geometry id="ID18">
            <mesh>
                <source id="ID19">
                    <float_array id="ID22" count="2898">314.7892 45.38327 328.518 81.88976 39.37008 274.1732 77.73852 49.39206 274.1732 303.8705 39.37008 325.4222 314.9414 39.37008 327.9781 317.28 39.37008 328.518 317.28 39.37008 328.518 314.7892 45.38327 328.518 314.9414 39.37008 327.9781 303.8705 39.37008 325.4222 81.88976 39.37008 274.1732 77.73852 49.39206 274.1732 317.28 39.37008 328.518 314.9414 39.37008 327.9781 303.8705 39.37008 325.4222 81.88976 39.37008 274.1732 77.73852 49.39206 274.1732 314.7892 45.38327 328.518 81.88976 39.37008 274.1732 314.7892 33.35689 328.518 77.73852 29.34809 274.1732 303.8705 39.37008 325.4222 314.9414 39.37008 327.9781 317.28 39.37008 328.518 317.28 39.37008 328.518 314.9414 39.37008 327.9781 314.7892 33.35689 328.518 303.8705 39.37008 325.4222 81.88976 39.37008 274.1732 77.73852 29.34809 274.1732 314.7892 33.35689 328.518 77.73852 29.34809 274.1732 303.8705 39.37008 325.4222 81.88976 39.37008 299.0468 81.88976 39.37008 274.1732 317.28 39.37008 343.4422 314.9414 39.37008 327.9781 317.28 39.37008 328.518 317.28 39.37008 328.518 314.9414 39.37008 327.9781 317.28 39.37008 343.4422 303.8705 39.37008 325.4222 81.88976 39.37008 299.0468 81.88976 39.37008 274.1732 317.28 39.37008 343.4422 81.88976 39.37008 299.0468 59.41405 59.41405 116.6929 80.61417 39.37008 260 67.71654 39.37008 116.6929 81.88976 39.37008 274.1732 77.73852 49.39206 274.1732 77.73852 49.39206 274.1732 59.41405 59.41405 116.6929 81.88976 39.37008 274.1732 80.61417 39.37008 260 67.71654 39.37008 116.6929 67.71654 39.37008 116.6929 59.41405 59.41405 116.6929 80.61417 39.37008 260 77.73852 49.39206 264.1512 81.88976 39.37008 274.1732 81.88976 39.37008 260 77.73852 49.39206 274.1732 77.73852 49.39206 274.1732 77.73852 49.39206 264.1512 81.88976 39.37008 274.1732 81.88976 39.37008 260 77.73852 49.39206 264.1512 81.88976 39.37008 260 77.73852 49.39206 299.0468 314.7892 45.38327 328.518 77.73852 49.39206 274.1732 314.7892 45.38327 343.4422 314.7892 45.38327 343.4422 77.73852 49.39206 299.0468 314.7892 45.38327 328.518 77.73852 49.39206 274.1732 77.73852 49.39206 299.0468 314.7892 45.38327 343.4422 314.7892 45.38327 328.518 317.28 39.37008 343.4422 317.28 39.37008 328.518 314.7892 45.38327 343.4422 314.7892 45.38327 343.4422 314.7892 45.38327 328.518 317.28 39.37008 343.4422 317.28 39.37008 328.518 317.28 39.37008 328.518 314.7892 33.35689 343.4422 314.7892 33.35689 328.518 317.28 39.37008 343.4422 317.28 39.37008 343.4422 317.28 39.37008 328.518 314.7892 33.35689 343.4422 314.7892 33.35689 328.518 314.7892 33.35689 343.4422 314.7892 33.35689 328.518 77.73852 29.34809 299.0468 77.73852 29.34809 274.1732 314.7892 33.35689 343.4422 314.7892 33.35689 343.4422 314.7892 33.35689 328.518 77.73852 29.34809 299.0468 77.73852 29.34809 274.1732 77.73852 29.34809 299.0468 81.88976 39.37008 260 77.73852 29.34809 274.1732 77.73852 29.34809 264.1512 81.88976 39.37008 274.1732 81.88976 39.37008 274.1732 81.88976 39.37008 260 77.73852 29.34809 274.1732 77.73852 29.34809 264.1512 77.73852 29.34809 264.1512 67.71654 39.37008 116.6929 77.73852 29.34809 274.1732 59.41405 19.32611 116.6929 81.88976 39.37008 274.1732 80.61417 39.37008 260 80.61417 39.37008 260 67.71654 39.37008 116.6929 81.88976 39.37008 274.1732 77.73852 29.34809 274.1732 59.41405 19.32611 116.6929 59.41405 19.32611 116.6929 81.88976 39.37008 299.0468 314.7892 45.38327 343.4422 77.73852 49.39206 299.0468 317.28 39.37008 343.4422 317.28 39.37008 343.4422 81.88976 39.37008 299.0468 314.7892 45.38327 343.4422 77.73852 49.39206 299.0468 81.88976 39.37008 274.1732 77.73852 29.34809 299.0468 77.73852 29.34809 274.1732 81.88976 39.37008 299.0468 81.88976 39.37008 299.0468 81.88976 39.37008 274.1732 77.73852 29.34809 299.0468 77.73852 29.34809 274.1732 67.20893 67.20893 0 67.71654 39.37008 116.6929 78.74016 39.37008 0 59.41405 59.41405 116.6929 59.41405 59.41405 116.6929 67.20893 67.20893 0 67.71654 39.37008 116.6929 78.74016 39.37008 0 78.74016 39.37008 0 67.20893 67.20893 0 67.71654 53.54331 274.1732 59.41405 59.41405 116.6929 39.37008 67.71654 116.6929 77.73852 49.39206 274.1732 77.73852 49.39206 274.1732 67.71654 53.54331 274.1732 59.41405 59.41405 116.6929 39.37008 67.71654 116.6929 67.71654 53.54331 274.1732 39.37008 67.71654 116.6929 77.73852 49.39206 274.1732 81.88976 39.37008 299.0468 81.88976 39.37008 274.1732 77.73852 49.39206 299.0468 77.73852 49.39206 299.0468 77.73852 49.39206 274.1732 81.88976 39.37008 299.0468 81.88976 39.37008 274.1732 77.73852 49.39206 274.1732 77.73852 49.39206 264.1512 67.71654 53.54331 274.1732 67.71654 53.54331 274.1732 77.73852 49.39206 264.1512 77.73852 49.39206 274.1732 42.84294 49.39206 264.1512 49.71654 39.37008 260 38.41071 39.37008 260 77.73852 49.39206 264.1512 80.61417 39.37008 260 81.88976 39.37008 260 81.88976 39.37008 260 77.73852 49.39206 264.1512 80.61417 39.37008 260 49.71654 39.37008 260 42.84294 49.39206 264.1512 38.41071 39.37008 260 42.84294 49.39206 264.1512 38.41071 39.37008 260 49.71654 39.37008 260 67.71654 53.54331 288.3465 77.73852 49.39206 274.1732 67.71654 53.54331 274.1732 77.73852 49.39206 299.0468 77.73852 49.39206 299.0468 67.71654 53.54331 288.3465 77.73852 49.39206 274.1732 67.71654 53.54331 274.1732 67.71654 53.54331 288.3465 314.7892 33.35689 343.4422 81.88976 39.37008 299.0468 77.73852 29.34809 299.0468 317.28 39.37008 343.4422 317.28 39.37008 343.4422 314.7892 33.35689 343.4422 81.88976 39.37008 299.0468 77.73852 29.34809 299.0468 77.73852 29.34809 299.0468 67.71654 25.19685 274.1732 77.73852 29.34809 274.1732 67.71654 25.19685 288.3465 67.71654 25.19685 288.3465 77.73852 29.34809 299.0468 67.71654 25.19685 274.1732 77.73852 29.34809 274.1732 67.71654 25.19685 274.1732 67.71654 25.19685 288.3465 67.71654 25.19685 274.1732 77.73852 29.34809 264.1512 77.73852 29.34809 274.1732 77.73852 29.34809 274.1732 77.73852 29.34809 264.1512 67.71654 25.19685 274.1732 49.71654 39.37008 260 42.84294 29.34809 264.1512 38.41071 39.37008 260 77.73852 29.34809 264.1512 80.61417 39.37008 260 81.88976 39.37008 260 81.88976 39.37008 260 80.61417 39.37008 260 77.73852 29.34809 264.1512 49.71654 39.37008 260 42.84294 29.34809 264.1512 38.41071 39.37008 260 42.84294 29.34809 264.1512 78.74016 39.37008 0 59.41405 19.32611 116.6929 67.20893 11.53123 0 67.71654 39.37008 116.6929 67.71654 39.37008 116.6929 78.74016 39.37008 0 59.41405 19.32611 116.6929 67.20893 11.53123 0 67.20893 11.53123 0 77.73852 29.34809 274.1732 39.37008 11.02362 116.6929 59.41405 19.32611 116.6929 67.71654 25.19685 274.1732 67.71654 25.19685 274.1732 77.73852 29.34809 274.1732 39.37008 11.02362 116.6929 59.41405 19.32611 116.6929 39.37008 11.02362 116.6929 77.73852 49.39206 299.0468 81.88976 39.37008 303.4791 81.88976 39.37008 299.0468 81.88976 39.37008 299.0468 81.88976 39.37008 303.4791 77.73852 49.39206 299.0468 81.88976 39.37008 303.4791 81.88976 39.37008 303.4791 77.73852 29.34809 299.0468 81.88976 39.37008 299.0468 81.88976 39.37008 299.0468 77.73852 29.34809 299.0468 81.88976 39.37008 303.4791 11.53123 67.20893 0 11.53123 11.53123 0 0 39.37008 0 39.37008 0 0 39.37008 78.74016 0 67.20893 11.53123 0 67.20893 67.20893 0 78.74016 39.37008 0 78.74016 39.37008 0 67.20893 67.20893 0 67.20893 11.53123 0 39.37008 78.74016 0 39.37008 0 0 11.53123 67.20893 0 11.53123 11.53123 0 0 39.37008 0 39.37008 0 0 11.53123 11.53123 0 0 39.37008 0 11.53123 67.20893 0 39.37008 78.74016 0 39.37008 67.71654 116.6929 67.20893 67.20893 0 39.37008 78.74016 0 59.41405 59.41405 116.6929 59.41405 59.41405 116.6929 39.37008 67.71654 116.6929 67.20893 67.20893 0 39.37008 78.74016 0 19.32611 19.32611 116.6929 19.32611 59.41405 116.6929 11.02362 39.37008 116.6929 39.37008 11.02362 116.6929 39.37008 67.71654 116.6929 59.41405 19.32611 116.6929 59.41405 59.41405 116.6929 67.71654 39.37008 116.6929 67.71654 39.37008 116.6929 59.41405 19.32611 116.6929 59.41405 59.41405 116.6929 39.37008 67.71654 116.6929 39.37008 11.02362 116.6929 19.32611 59.41405 116.6929 19.32611 19.32611 116.6929 11.02362 39.37008 116.6929 19.32611 59.41405 116.6929 11.02362 39.37008 116.6929 19.32611 19.32611 116.6929 57.69455 49.39206 274.1732 39.37008 67.71654 116.6929 19.32611 59.41405 116.6929 67.71654 53.54331 274.1732 67.71654 53.54331 274.1732 57.69455 49.39206 274.1732 39.37008 67.71654 116.6929 19.32611 59.41405 116.6929 57.69455 49.39206 274.1732 53.54331 53.54331 274.1732 77.73852 49.39206 264.1512 42.84294 49.39206 264.1512 67.71654 53.54331 274.1732 67.71654 53.54331 274.1732 53.54331 53.54331 274.1732 77.73852 49.39206 264.1512 42.84294 49.39206 264.1512 53.54331 53.54331 274.1732 43.70699 49.39206 277.3341 38.41071 39.37008 260 39.58244 39.37008 277.8772 42.84294 49.39206 264.1512 42.84294 49.39206 264.1512 43.70699 49.39206 277.3341 38.41071 39.37008 260 39.58244 39.37008 277.8772 43.70699 49.39206 277.3341 39.58244 39.37008 277.8772 61.85101 51.11372 280.0388 67.71654 53.54331 288.3465 67.71654 53.54331 274.1732 60.86191 50.70403 281.0279 66.08055 52.86566 286.5997 66.08055 52.86566 286.5997 60.86191 50.70403 281.0279 67.71654 53.54331 288.3465 61.85101 51.11372 280.0388 67.71654 53.54331 274.1732 61.85101 51.11372 280.0388 60.86191 50.70403 281.0279 66.08055 52.86566 286.5997 64.55562 49.39206 298.1828 67.71654 53.54331 288.3465 65.86656 53.54331 288.2252 77.73852 49.39206 299.0468 77.73852 49.39206 299.0468 64.55562 49.39206 298.1828 67.71654 53.54331 288.3465 65.86656 53.54331 288.2252 65.86656 53.54331 288.2252 64.55562 49.39206 298.1828 67.71654 25.19685 288.3465 61.85101 27.62643 280.0388 67.71654 25.19685 274.1732 60.86191 28.03613 281.0279 66.08055 25.8745 286.5997 66.08055 25.8745 286.5997 67.71654 25.19685 288.3465 60.86191 28.03613 281.0279 61.85101 27.62643 280.0388 67.71654 25.19685 274.1732 66.08055 25.8745 286.5997 60.86191 28.03613 281.0279 61.85101 27.62643 280.0388 67.71654 25.19685 288.3465 64.55562 29.34809 298.1828 65.86656 25.19685 288.2252 77.73852 29.34809 299.0468 77.73852 29.34809 299.0468 67.71654 25.19685 288.3465 64.55562 29.34809 298.1828 65.86656 25.19685 288.2252 64.55562 29.34809 298.1828 65.86656 25.19685 288.2252 77.73852 29.34809 264.1512 53.54331 25.19685 274.1732 42.84294 29.34809 264.1512 67.71654 25.19685 274.1732 67.71654 25.19685 274.1732 77.73852 29.34809 264.1512 53.54331 25.19685 274.1732 42.84294 29.34809 264.1512 53.54331 25.19685 274.1732 39.58244 39.37008 277.8772 42.84294 29.34809 264.1512 43.70699 29.34809 277.3341 38.41071 39.37008 260 38.41071 39.37008 260 39.58244 39.37008 277.8772 42.84294 29.34809 264.1512 43.70699 29.34809 277.3341 43.70699 29.34809 277.3341 59.41405 19.32611 116.6929 39.37008 0 0 67.20893 11.53123 0 39.37008 11.02362 116.6929 39.37008 11.02362 116.6929 59.41405 19.32611 116.6929 39.37008 0 0 67.20893 11.53123 0 67.71654 25.19685 274.1732 19.32611 19.32611 116.6929 39.37008 11.02362 116.6929 57.69455 29.34809 274.1732 57.69455 29.34809 274.1732 67.71654 25.19685 274.1732 19.32611 19.32611 116.6929 39.37008 11.02362 116.6929 57.69455 29.34809 274.1732 81.88976 39.37008 303.4791 64.55562 49.39206 298.1828 64.01261 39.37008 302.3073 77.73852 49.39206 299.0468 77.73852 49.39206 299.0468 81.88976 39.37008 303.4791 64.55562 49.39206 298.1828 64.01261 39.37008 302.3073 64.01261 39.37008 302.3073 64.55562 29.34809 298.1828 81.88976 39.37008 303.4791 64.01261 39.37008 302.3073 77.73852 29.34809 299.0468 77.73852 29.34809 299.0468 64.55562 29.34809 298.1828 81.88976 39.37008 303.4791 64.01261 39.37008 302.3073 39.37008 11.02362 116.6929 11.53123 11.53123 0 39.37008 0 0 19.32611 19.32611 116.6929 19.32611 19.32611 116.6929 39.37008 11.02362 116.6929 11.53123 11.53123 0 39.37008 0 0 19.32611 19.32611 116.6929 0 39.37008 0 11.53123 11.53123 0 11.02362 39.37008 116.6929 11.02362 39.37008 116.6929 19.32611 19.32611 116.6929 0 39.37008 0 11.53123 11.53123 0 19.32611 59.41405 116.6929 0 39.37008 0 11.02362 39.37008 116.6929 11.53123 67.20893 0 11.53123 67.20893 0 19.32611 59.41405 116.6929 0 39.37008 0 11.02362 39.37008 116.6929 19.32611 59.41405 116.6929 39.37008 78.74016 0 11.53123 67.20893 0 39.37008 67.71654 116.6929 39.37008 67.71654 116.6929 19.32611 59.41405 116.6929 39.37008 78.74016 0 11.53123 67.20893 0 11.02362 39.37008 116.6929 57.69455 29.34809 274.1732 19.32611 19.32611 116.6929 53.54331 39.37008 274.1732 49.71654 39.37008 260 49.71654 39.37008 260 11.02362 39.37008 116.6929 53.54331 39.37008 274.1732 57.69455 29.34809 274.1732 19.32611 19.32611 116.6929 53.54331 39.37008 274.1732 57.69455 49.39206 274.1732 49.71654 39.37008 260 53.54331 39.37008 274.1732 11.02362 39.37008 116.6929 19.32611 59.41405 116.6929 19.32611 59.41405 116.6929 57.69455 49.39206 274.1732 11.02362 39.37008 116.6929 49.71654 39.37008 260 53.54331 39.37008 274.1732 43.70699 49.39206 277.3341 53.54331 53.54331 274.1732 42.84294 49.39206 264.1512 53.66456 53.54331 276.0232 53.66456 53.54331 276.0232 43.70699 49.39206 277.3341 53.54331 53.54331 274.1732 42.84294 49.39206 264.1512 53.66456 53.54331 276.0232 55.29003 52.86566 275.8092 67.71654 53.54331 274.1732 53.54331 53.54331 274.1732 61.85101 51.11372 280.0388 60.86191 50.70403 281.0279 60.86191 50.70403 281.0279 55.29003 52.86566 275.8092 61.85101 51.11372 280.0388 67.71654 53.54331 274.1732 53.54331 53.54331 274.1732 55.29003 52.86566 275.8092 44.32498 49.39206 280.441 40.30659 39.37008 281.5177 44.32498 49.39206 280.441 40.30659 39.37008 281.5177 44.32498 49.39206 280.441 40.30659 39.37008 281.5177 67.71654 53.54331 288.3465 66.08055 52.86566 286.5997 65.86656 53.54331 288.2252 65.86656 53.54331 288.2252 66.08055 52.86566 286.5997 67.71654 53.54331 288.3465 61.44879 49.39206 297.5648 64.04823 53.54331 287.8635 61.44879 49.39206 297.5648 64.04823 53.54331 287.8635 64.04823 53.54331 287.8635 61.44879 49.39206 297.5648 67.71654 25.19685 288.3465 65.86656 25.19685 288.2252 66.08055 25.8745 286.5997 66.08055 25.8745 286.5997 65.86656 25.19685 288.2252 67.71654 25.19685 288.3465 61.85101 27.62643 280.0388 53.54331 25.19685 274.1732 67.71654 25.19685 274.1732 55.29003 25.8745 275.8092 60.86191 28.03613 281.0279 60.86191 28.03613 281.0279 61.85101 27.62643 280.0388 55.29003 25.8745 275.8092 53.54331 25.19685 274.1732 67.71654 25.19685 274.1732 55.29003 25.8745 275.8092 61.44879 29.34809 297.5648 64.04823 25.19685 287.8635 61.44879 29.34809 297.5648 64.04823 25.19685 287.8635 61.44879 29.34809 297.5648 64.04823 25.19685 287.8635 53.54331 25.19685 274.1732 43.70699 29.34809 277.3341 42.84294 29.34809 264.1512 53.66456 25.19685 276.0232 53.66456 25.19685 276.0232 53.54331 25.19685 274.1732 43.70699 29.34809 277.3341 42.84294 29.34809 264.1512 53.66456 25.19685 276.0232 40.30659 39.37008 281.5177 44.32498 29.34809 280.441 40.30659 39.37008 281.5177 44.32498 29.34809 280.441 44.32498 29.34809 280.441 61.44879 49.39206 297.5648 60.37206 39.37008 301.5832 61.44879 49.39206 297.5648 60.37206 39.37008 301.5832 60.37206 39.37008 301.5832 61.44879 29.34809 297.5648 60.37206 39.37008 301.5832 61.44879 29.34809 297.5648 60.37206 39.37008 301.5832 54.02625 53.54331 277.8415 44.32498 49.39206 280.441 44.32498 49.39206 280.441 54.02625 53.54331 277.8415 54.02625 53.54331 277.8415 53.66456 53.54331 276.0232 55.29003 52.86566 275.8092 53.54331 53.54331 274.1732 53.54331 53.54331 274.1732 55.29003 52.86566 275.8092 53.66456 53.54331 276.0232 45.34321 49.39206 283.4406 41.49973 39.37008 285.0326 45.34321 49.39206 283.4406 41.49973 39.37008 285.0326 45.34321 49.39206 283.4406 41.49973 39.37008 285.0326 64.04823 53.54331 287.8635 67.1775 49.39206 278.2676 66.64768 49.39206 278.1622 64.04823 53.54331 287.8635 67.1775 49.39206 278.2676 66.64768 49.39206 278.1622 67.1775 49.39206 278.2676 66.64768 49.39206 278.1622 58.4492 49.39206 296.5466 63.19074 53.54331 287.5724 62.29268 53.54331 287.2676 59.96927 49.39206 297.0626 59.96927 49.39206 297.0626 58.4492 49.39206 296.5466 63.19074 53.54331 287.5724 62.29268 53.54331 287.2676 63.19074 53.54331 287.5724 62.29268 53.54331 287.2676 58.4492 49.39206 296.5466 59.96927 49.39206 297.0626 67.1775 29.34809 278.2676 64.04823 25.19685 287.8635 66.64768 29.34809 278.1622 64.04823 25.19685 287.8635 67.1775 29.34809 278.2676 66.64768 29.34809 278.1622 67.1775 29.34809 278.2676 66.64768 29.34809 278.1622 53.66456 25.19685 276.0232 53.54331 25.19685 274.1732 55.29003 25.8745 275.8092 55.29003 25.8745 275.8092 53.54331 25.19685 274.1732 53.66456 25.19685 276.0232 63.19074 25.19685 287.5724 58.4492 29.34809 296.5466 62.29268 25.19685 287.2676 59.96927 29.34809 297.0626 59.96927 29.34809 297.0626 58.4492 29.34809 296.5466 63.19074 25.19685 287.5724 62.29268 25.19685 287.2676 59.96927 29.34809 297.0626 58.4492 29.34809 296.5466 62.29268 25.19685 287.2676 63.19074 25.19685 287.5724 54.02625 25.19685 277.8415 44.32498 29.34809 280.441 44.32498 29.34809 280.441 54.02625 25.19685 277.8415 54.02625 25.19685 277.8415 41.49973 39.37008 285.0326 45.34321 29.34809 283.4406 41.49973 39.37008 285.0326 45.34321 29.34809 283.4406 45.34321 29.34809 283.4406 58.6349 39.37008 300.9935 58.4492 49.39206 296.5466 56.85718 39.37008 300.39 59.96927 49.39206 297.0626 59.96927 49.39206 297.0626 58.6349 39.37008 300.9935 58.4492 49.39206 296.5466 56.85718 39.37008 300.39 56.85718 39.37008 300.39 58.6349 39.37008 300.9935 58.4492 29.34809 296.5466 58.6349 39.37008 300.9935 56.85718 39.37008 300.39 59.96927 29.34809 297.0626 59.96927 29.34809 297.0626 58.6349 39.37008 300.9935 58.4492 29.34809 296.5466 56.85718 39.37008 300.39 54.62218 53.54331 279.5971 45.34321 49.39206 283.4406 45.34321 49.39206 283.4406 54.62218 53.54331 279.5971 54.62218 53.54331 279.5971 63.72751 49.39206 275.2421 63.62213 49.39206 274.7123 54.02625 53.54331 277.8415 54.02625 53.54331 277.8415 63.72751 49.39206 275.2421 63.62213 49.39206 274.7123 63.72751 49.39206 275.2421 63.62213 49.39206 274.7123 46.74424 49.39206 286.2816 43.14145 39.37008 288.3617 46.74424 49.39206 286.2816 43.14145 39.37008 288.3617 46.74424 49.39206 286.2816 43.14145 39.37008 288.3617 67.1775 49.39206 278.2676 67.63178 40.2322 274.4895 66.64768 49.39206 278.1622 67.71654 39.44334 274.1732 67.71654 39.44334 274.1732 67.1775 49.39206 278.2676 67.63178 40.2322 274.4895 66.64768 49.39206 278.1622 67.71654 39.44334 274.1732 67.63178 40.2322 274.4895 62.29268 53.54331 287.2676 66.4122 49.39206 278.0823 66.13615 49.39206 277.9886 63.19074 53.54331 287.5724 63.19074 53.54331 287.5724 62.29268 53.54331 287.2676 66.4122 49.39206 278.0823 66.13615 49.39206 277.9886 66.4122 49.39206 278.0823 66.13615 49.39206 277.9886 55.60818 49.39206 295.1455 60.62992 53.54331 286.4476 55.60818 49.39206 295.1455 60.62992 53.54331 286.4476 60.62992 53.54331 286.4476 55.60818 49.39206 295.1455 66.4122 29.34809 278.0823 62.29268 25.19685 287.2676 66.13615 29.34809 277.9886 63.19074 25.19685 287.5724 63.19074 25.19685 287.5724 62.29268 25.19685 287.2676 66.4122 29.34809 278.0823 66.13615 29.34809 277.9886 66.13615 29.34809 277.9886 66.4122 29.34809 278.0823 67.63178 38.50795 274.4895 67.1775 29.34809 278.2676 66.64768 29.34809 278.1622 67.71654 39.29682 274.1732 67.71654 39.29682 274.1732 67.63178 38.50795 274.4895 67.1775 29.34809 278.2676 66.64768 29.34809 278.1622 67.63178 38.50795 274.4895 67.71654 39.29682 274.1732 63.72751 29.34809 275.2421 63.62213 29.34809 274.7123 54.02625 25.19685 277.8415 54.02625 25.19685 277.8415 63.72751 29.34809 275.2421 63.62213 29.34809 274.7123 63.72751 29.34809 275.2421 63.62213 29.34809 274.7123 55.60818 29.34809 295.1455 60.62992 25.19685 286.4476 55.60818 29.34809 295.1455 60.62992 25.19685 286.4476 55.60818 29.34809 295.1455 60.62992 25.19685 286.4476 54.62218 25.19685 279.5971 45.34321 29.34809 283.4406 45.34321 29.34809 283.4406 54.62218 25.19685 279.5971 54.62218 25.19685 279.5971 43.14145 39.37008 288.3617 46.74424 29.34809 286.2816 43.14145 39.37008 288.3617 46.74424 29.34809 286.2816 46.74424 29.34809 286.2816 55.60818 49.39206 295.1455 53.5281 39.37008 298.7483 55.60818 49.39206 295.1455 53.5281 39.37008 298.7483 53.5281 39.37008 298.7483 55.60818 29.34809 295.1455 53.5281 39.37008 298.7483 55.60818 29.34809 295.1455 53.5281 39.37008 298.7483 55.44216 53.54331 281.2598 46.74424 49.39206 286.2816 46.74424 49.39206 286.2816 55.44216 53.54331 281.2598 55.44216 53.54331 281.2598 63.90115 49.39206 275.7536 54.62218 53.54331 279.5971 54.62218 53.54331 279.5971 63.90115 49.39206 275.7536 63.90115 49.39206 275.7536 63.72751 49.39206 275.2421 67.71654 39.44334 274.1732 63.62213 49.39206 274.7123 63.62213 49.39206 274.7123 67.71654 39.44334 274.1732 63.72751 49.39206 275.2421 48.50412 49.39206 288.9154 45.20365 39.37008 291.448 48.50412 49.39206 288.9154 45.20365 39.37008 291.448 48.50412 49.39206 288.9154 45.20365 39.37008 291.448 66.4122 49.39206 278.0823 66.13615 49.39206 277.9886 66.4122 49.39206 278.0823 66.13615 49.39206 277.9886 60.62992 53.54331 286.4476 65.65167 49.39206 277.7497 60.62992 53.54331 286.4476 65.65167 49.39206 277.7497 65.65167 49.39206 277.7497 52.97433 49.39206 293.3856 59.08842 53.54331 285.4176 52.97433 49.39206 293.3856 59.08842 53.54331 285.4176 59.08842 53.54331 285.4176 52.97433 49.39206 293.3856 60.62992 25.19685 286.4476 65.65167 29.34809 277.7497 60.62992 25.19685 286.4476 65.65167 29.34809 277.7497 65.65167 29.34809 277.7497 67.71654 39.29682 274.1732 66.4122 29.34809 278.0823 66.13615 29.34809 277.9886 66.4122 29.34809 278.0823 67.71654 39.29682 274.1732 66.13615 29.34809 277.9886 63.90115 29.34809 275.7536 54.62218 25.19685 279.5971 54.62218 25.19685 279.5971 63.90115 29.34809 275.7536 63.90115 29.34809 275.7536 63.72751 29.34809 275.2421 63.62213 29.34809 274.7123 63.62213 29.34809 274.7123 63.72751 29.34809 275.2421 52.97433 29.34809 293.3856 59.08842 25.19685 285.4176 52.97433 29.34809 293.3856 59.08842 25.19685 285.4176 52.97433 29.34809 293.3856 59.08842 25.19685 285.4176 55.44216 25.19685 281.2598 46.74424 29.34809 286.2816 46.74424 29.34809 286.2816 55.44216 25.19685 281.2598 55.44216 25.19685 281.2598 45.20365 39.37008 291.448 48.50412 29.34809 288.9154 45.20365 39.37008 291.448 48.50412 29.34809 288.9154 48.50412 29.34809 288.9154 52.97433 49.39206 293.3856 50.44179 39.37008 296.6861 52.97433 49.39206 293.3856 50.44179 39.37008 296.6861 50.44179 39.37008 296.6861 52.97433 29.34809 293.3856 50.44179 39.37008 296.6861 52.97433 29.34809 293.3856 50.44179 39.37008 296.6861 56.47216 53.54331 282.8013 48.50412 49.39206 288.9154 48.50412 49.39206 288.9154 56.47216 53.54331 282.8013 56.47216 53.54331 282.8013 64.14008 49.39206 276.2381 55.44216 53.54331 281.2598 55.44216 53.54331 281.2598 64.14008 49.39206 276.2381 64.14008 49.39206 276.2381 63.90115 49.39206 275.7536 63.90115 49.39206 275.7536 50.59273 49.39206 291.297 47.65106 39.37008 294.2387 50.59273 49.39206 291.297 47.65106 39.37008 294.2387 50.59273 49.39206 291.297 47.65106 39.37008 294.2387 67.74657 39.37008 274.1514 67.71654 39.44334 274.1732 67.63178 40.2322 274.4895 67.72817 39.37008 274.1451 67.72817 39.37008 274.1451 67.74657 39.37008 274.1514 67.71654 39.44334 274.1732 67.63178 40.2322 274.4895 67.72817 39.37008 274.1451 67.74657 39.37008 274.1514 65.65167 49.39206 277.7497 65.65167 49.39206 277.7497 59.08842 53.54331 285.4176 65.20251 49.39206 277.4496 59.08842 53.54331 285.4176 65.20251 49.39206 277.4496 65.20251 49.39206 277.4496 50.59273 49.39206 291.297 57.69455 53.54331 284.1952 50.59273 49.39206 291.297 57.69455 53.54331 284.1952 57.69455 53.54331 284.1952 59.08842 25.19685 285.4176 65.20251 29.34809 277.4496 59.08842 25.19685 285.4176 65.20251 29.34809 277.4496 65.20251 29.34809 277.4496 65.65167 29.34809 277.7497 65.65167 29.34809 277.7497 67.71654 39.29682 274.1732 67.74657 39.37008 274.1514 67.63178 38.50795 274.4895 67.72817 39.37008 274.1451 67.72817 39.37008 274.1451 67.71654 39.29682 274.1732 67.74657 39.37008 274.1514 67.63178 38.50795 274.4895 64.14008 29.34809 276.2381 55.44216 25.19685 281.2598 55.44216 25.19685 281.2598 64.14008 29.34809 276.2381 64.14008 29.34809 276.2381 63.90115 29.34809 275.7536 63.90115 29.34809 275.7536 50.59273 29.34809 291.297 57.69455 25.19685 284.1952 50.59273 29.34809 291.297 57.69455 25.19685 284.1952 50.59273 29.34809 291.297 57.69455 25.19685 284.1952 56.47216 25.19685 282.8013 48.50412 29.34809 288.9154 48.50412 29.34809 288.9154 56.47216 25.19685 282.8013 56.47216 25.19685 282.8013 47.65106 39.37008 294.2387 50.59273 29.34809 291.297 47.65106 39.37008 294.2387 50.59273 29.34809 291.297 64.44019 49.39206 276.6873 56.47216 53.54331 282.8013 56.47216 53.54331 282.8013 64.44019 49.39206 276.6873 64.44019 49.39206 276.6873 64.14008 49.39206 276.2381 64.14008 49.39206 276.2381 65.20251 49.39206 277.4496 65.20251 49.39206 277.4496 61.85101 51.11372 280.0388 64.79637 49.39206 277.0934 57.69455 53.54331 284.1952 57.69455 53.54331 284.1952 61.85101 51.11372 280.0388 64.79637 49.39206 277.0934 64.79637 49.39206 277.0934 61.85101 27.62643 280.0388 64.79637 29.34809 277.0934 57.69455 25.19685 284.1952 57.69455 25.19685 284.1952 61.85101 27.62643 280.0388 64.79637 29.34809 277.0934 64.79637 29.34809 277.0934 65.20251 29.34809 277.4496 65.20251 29.34809 277.4496 64.44019 29.34809 276.6873 56.47216 25.19685 282.8013 56.47216 25.19685 282.8013 64.44019 29.34809 276.6873 64.44019 29.34809 276.6873 64.14008 29.34809 276.2381 64.14008 29.34809 276.2381 64.44019 49.39206 276.6873 64.44019 49.39206 276.6873 64.79637 49.39206 277.0934 64.79637 49.39206 277.0934 64.79637 29.34809 277.0934 64.79637 29.34809 277.0934 64.44019 29.34809 276.6873 64.44019 29.34809 276.6873</float_array>
                    <technique_common>
                        <accessor count="966" source="#ID22" stride="3">
                            <param name="X" type="float" />
                            <param name="Y" type="float" />
                            <param name="Z" type="float" />
                        </accessor>
                    </technique_common>
                </source>
                <source id="ID20">
                    <float_array id="ID23" count="2898">0.2239835 0.092777 -0.9701669 0.2239835 0.092777 -0.9701669 0.2239835 0.092777 -0.9701669 0.2239835 0.092777 -0.9701669 0.2239835 0.092777 -0.9701669 0.2239835 0.092777 -0.9701669 -0.2239835 -0.092777 0.9701669 -0.2239835 -0.092777 0.9701669 -0.2239835 -0.092777 0.9701669 -0.2239835 -0.092777 0.9701669 -0.2239835 -0.092777 0.9701669 -0.2239835 -0.092777 0.9701669 0 0 0 0 0 0 0 0 0 0 0 0 0 0 0 0 0 0 0.2239835 -0.092777 -0.9701669 0.2239835 -0.092777 -0.9701669 0.2239835 -0.092777 -0.9701669 0.2239835 -0.092777 -0.9701669 0.2239835 -0.092777 -0.9701669 0.2239835 -0.092777 -0.9701669 -0.2239835 0.092777 0.9701669 -0.2239835 0.092777 0.9701669 -0.2239835 0.092777 0.9701669 -0.2239835 0.092777 0.9701669 -0.2239835 0.092777 0.9701669 -0.2239835 0.092777 0.9701669 0 0 0 0 0 0 3.399612e-18 -1 -1.000414e-17 3.399612e-18 -1 -1.000414e-17 3.399612e-18 -1 -1.000414e-17 3.399612e-18 -1 -1.000414e-17 3.399612e-18 -1 -1.000414e-17 3.399612e-18 -1 -1.000414e-17 -3.399612e-18 1 1.000414e-17 -3.399612e-18 1 1.000414e-17 -3.399612e-18 1 1.000414e-17 -3.399612e-18 1 1.000414e-17 -3.399612e-18 1 1.000414e-17 -3.399612e-18 1 1.000414e-17 0 0 0 0 0 0 0.9207022 0.3813674 -0.0828632 0.9207022 0.3813674 -0.0828632 0.9207022 0.3813674 -0.0828632 0.9207022 0.3813674 -0.0828632 0.9207022 0.3813674 -0.0828632 -0.9207022 -0.3813674 0.0828632 -0.9207022 -0.3813674 0.0828632 -0.9207022 -0.3813674 0.0828632 -0.9207022 -0.3813674 0.0828632 -0.9207022 -0.3813674 0.0828632 0 0 0 0 0 0 0 0 0 0.9238795 0.3826834 2.082286e-17 0.9238795 0.3826834 2.082286e-17 0.9238795 0.3826834 2.082286e-17 0.9238795 0.3826834 2.082286e-17 -0.9238795 -0.3826834 -2.082286e-17 -0.9238795 -0.3826834 -2.082286e-17 -0.9238795 -0.3826834 -2.082286e-17 -0.9238795 -0.3826834 -2.082286e-17 0 0 0 0 0 0 0.01690871 0.999857 0 0.01690871 0.999857 0 0.01690871 0.999857 0 0.01690871 0.999857 0 -0.01690871 -0.999857 -0 -0.01690871 -0.999857 -0 -0.01690871 -0.999857 -0 -0.01690871 -0.999857 -0 0 0 0 0 0 0 0.9238795 0.3826834 0 0.9238795 0.3826834 0 0.9238795 0.3826834 0 0.9238795 0.3826834 0 -0.9238795 -0.3826834 -0 -0.9238795 -0.3826834 -0 -0.9238795 -0.3826834 -0 -0.9238795 -0.3826834 -0 0.9238795 -0.3826834 0 0.9238795 -0.3826834 0 0.9238795 -0.3826834 0 0.9238795 -0.3826834 0 -0.9238795 0.3826834 -0 -0.9238795 0.3826834 -0 -0.9238795 0.3826834 -0 -0.9238795 0.3826834 -0 0 0 0 0.01690871 -0.999857 -7.877701e-17 0.01690871 -0.999857 -7.877701e-17 0.01690871 -0.999857 -7.877701e-17 0.01690871 -0.999857 -7.877701e-17 -0.01690871 0.999857 7.877701e-17 -0.01690871 0.999857 7.877701e-17 -0.01690871 0.999857 7.877701e-17 -0.01690871 0.999857 7.877701e-17 0 0 0 0.9238795 -0.3826834 2.082286e-17 0.9238795 -0.3826834 2.082286e-17 0.9238795 -0.3826834 2.082286e-17 0.9238795 -0.3826834 2.082286e-17 -0.9238795 0.3826834 -2.082286e-17 -0.9238795 0.3826834 -2.082286e-17 -0.9238795 0.3826834 -2.082286e-17 -0.9238795 0.3826834 -2.082286e-17 0 0 0 0.9207022 -0.3813674 -0.0828632 0.9207022 -0.3813674 -0.0828632 0.9207022 -0.3813674 -0.0828632 0.9207022 -0.3813674 -0.0828632 0.9207022 -0.3813674 -0.0828632 -0.9207022 0.3813674 0.0828632 -0.9207022 0.3813674 0.0828632 -0.9207022 0.3813674 0.0828632 -0.9207022 0.3813674 0.0828632 -0.9207022 0.3813674 0.0828632 0 0 0 -0.184792 -0.07654336 0.9797923 -0.184792 -0.07654336 0.9797923 -0.184792 -0.07654336 0.9797923 -0.184792 -0.07654336 0.9797923 0.184792 0.07654336 -0.9797923 0.184792 0.07654336 -0.9797923 0.184792 0.07654336 -0.9797923 0.184792 0.07654336 -0.9797923 0.9238795 -0.3826834 -2.696529e-16 0.9238795 -0.3826834 -2.696529e-16 0.9238795 -0.3826834 -2.696529e-16 0.9238795 -0.3826834 -2.696529e-16 -0.9238795 0.3826834 2.696529e-16 -0.9238795 0.3826834 2.696529e-16 -0.9238795 0.3826834 2.696529e-16 -0.9238795 0.3826834 2.696529e-16 0.9203809 0.3812342 0.08694556 0.9203809 0.3812342 0.08694556 0.9203809 0.3812342 0.08694556 0.9203809 0.3812342 0.08694556 -0.9203809 -0.3812342 -0.08694556 -0.9203809 -0.3812342 -0.08694556 -0.9203809 -0.3812342 -0.08694556 -0.9203809 -0.3812342 -0.08694556 0 0 0 0 0 0 0.3826445 0.9237855 0.01426469 0.3826445 0.9237855 0.01426469 0.3826445 0.9237855 0.01426469 0.3826445 0.9237855 0.01426469 -0.3826445 -0.9237855 -0.01426469 -0.3826445 -0.9237855 -0.01426469 -0.3826445 -0.9237855 -0.01426469 -0.3826445 -0.9237855 -0.01426469 0 0 0 0 0 0 0.9238795 0.3826834 -2.608631e-16 0.9238795 0.3826834 -2.608631e-16 0.9238795 0.3826834 -2.608631e-16 0.9238795 0.3826834 -2.608631e-16 -0.9238795 -0.3826834 2.608631e-16 -0.9238795 -0.3826834 2.608631e-16 -0.9238795 -0.3826834 2.608631e-16 -0.9238795 -0.3826834 2.608631e-16 0.3826834 0.9238795 3.123429e-17 0.3826834 0.9238795 3.123429e-17 0.3826834 0.9238795 3.123429e-17 -0.3826834 -0.9238795 -3.123429e-17 -0.3826834 -0.9238795 -3.123429e-17 -0.3826834 -0.9238795 -3.123429e-17 8.92393e-16 0.3826834 -0.9238795 8.92393e-16 0.3826834 -0.9238795 8.92393e-16 0.3826834 -0.9238795 8.92393e-16 0.3826834 -0.9238795 8.92393e-16 0.3826834 -0.9238795 8.92393e-16 0.3826834 -0.9238795 -8.92393e-16 -0.3826834 0.9238795 -8.92393e-16 -0.3826834 0.9238795 -8.92393e-16 -0.3826834 0.9238795 -8.92393e-16 -0.3826834 0.9238795 -8.92393e-16 -0.3826834 0.9238795 -8.92393e-16 -0.3826834 0.9238795 0 0 0 0 0 0 0 0 0 0.3826834 0.9238795 -1.122823e-16 0.3826834 0.9238795 -1.122823e-16 0.3826834 0.9238795 -1.122823e-16 0.3826834 0.9238795 -1.122823e-16 -0.3826834 -0.9238795 1.122823e-16 -0.3826834 -0.9238795 1.122823e-16 -0.3826834 -0.9238795 1.122823e-16 -0.3826834 -0.9238795 1.122823e-16 0 0 0 -0.184792 0.07654336 0.9797923 -0.184792 0.07654336 0.9797923 -0.184792 0.07654336 0.9797923 -0.184792 0.07654336 0.9797923 0.184792 -0.07654336 -0.9797923 0.184792 -0.07654336 -0.9797923 0.184792 -0.07654336 -0.9797923 0.184792 -0.07654336 -0.9797923 0.3826834 -0.9238795 -1.122823e-16 0.3826834 -0.9238795 -1.122823e-16 0.3826834 -0.9238795 -1.122823e-16 0.3826834 -0.9238795 -1.122823e-16 -0.3826834 0.9238795 1.122823e-16 -0.3826834 0.9238795 1.122823e-16 -0.3826834 0.9238795 1.122823e-16 -0.3826834 0.9238795 1.122823e-16 0 0 0 0 0 0 0.3826834 -0.9238795 3.123429e-17 0.3826834 -0.9238795 3.123429e-17 0.3826834 -0.9238795 3.123429e-17 -0.3826834 0.9238795 -3.123429e-17 -0.3826834 0.9238795 -3.123429e-17 -0.3826834 0.9238795 -3.123429e-17 8.954439e-16 -0.3826834 -0.9238795 8.954439e-16 -0.3826834 -0.9238795 8.954439e-16 -0.3826834 -0.9238795 8.954439e-16 -0.3826834 -0.9238795 8.954439e-16 -0.3826834 -0.9238795 8.954439e-16 -0.3826834 -0.9238795 -8.954439e-16 0.3826834 0.9238795 -8.954439e-16 0.3826834 0.9238795 -8.954439e-16 0.3826834 0.9238795 -8.954439e-16 0.3826834 0.9238795 -8.954439e-16 0.3826834 0.9238795 -8.954439e-16 0.3826834 0.9238795 0 0 0 0.9203809 -0.3812342 0.08694556 0.9203809 -0.3812342 0.08694556 0.9203809 -0.3812342 0.08694556 0.9203809 -0.3812342 0.08694556 -0.9203809 0.3812342 -0.08694556 -0.9203809 0.3812342 -0.08694556 -0.9203809 0.3812342 -0.08694556 -0.9203809 0.3812342 -0.08694556 0 0 0 0.3826445 -0.9237855 0.01426469 0.3826445 -0.9237855 0.01426469 0.3826445 -0.9237855 0.01426469 0.3826445 -0.9237855 0.01426469 -0.3826445 0.9237855 -0.01426469 -0.3826445 0.9237855 -0.01426469 -0.3826445 0.9237855 -0.01426469 -0.3826445 0.9237855 -0.01426469 0 0 0 0.9238795 0.3826834 -7.984788e-17 0.9238795 0.3826834 -7.984788e-17 0.9238795 0.3826834 -7.984788e-17 -0.9238795 -0.3826834 7.984788e-17 -0.9238795 -0.3826834 7.984788e-17 -0.9238795 -0.3826834 7.984788e-17 0 0 0 0.9238795 -0.3826834 0 0.9238795 -0.3826834 0 0.9238795 -0.3826834 0 -0.9238795 0.3826834 -0 -0.9238795 0.3826834 -0 -0.9238795 0.3826834 -0 0 0 -1 0 0 -1 0 0 -1 0 0 -1 0 0 -1 0 0 -1 0 0 -1 0 0 -1 -0 -0 1 -0 -0 1 -0 -0 1 -0 -0 1 -0 -0 1 -0 -0 1 -0 -0 1 -0 -0 1 0 0 0 0 0 0 0 0 0 0 0 0 0 0 0 0.3812342 0.9203809 0.08694556 0.3812342 0.9203809 0.08694556 0.3812342 0.9203809 0.08694556 0.3812342 0.9203809 0.08694556 -0.3812342 -0.9203809 -0.08694556 -0.3812342 -0.9203809 -0.08694556 -0.3812342 -0.9203809 -0.08694556 -0.3812342 -0.9203809 -0.08694556 0 0 1 0 0 1 0 0 1 0 0 1 0 0 1 0 0 1 0 0 1 0 0 1 -0 -0 -1 -0 -0 -1 -0 -0 -1 -0 -0 -1 -0 -0 -1 -0 -0 -1 -0 -0 -1 -0 -0 -1 0 0 0 0 0 0 0 0 0 -0.378336 0.913384 0.150305 -0.378336 0.913384 0.150305 -0.378336 0.913384 0.150305 -0.378336 0.913384 0.150305 0.378336 -0.913384 -0.150305 0.378336 -0.913384 -0.150305 0.378336 -0.913384 -0.150305 0.378336 -0.913384 -0.150305 0 0 0 1.069624e-15 0.9238795 -0.3826834 1.069624e-15 0.9238795 -0.3826834 1.069624e-15 0.9238795 -0.3826834 1.069624e-15 0.9238795 -0.3826834 -1.069624e-15 -0.9238795 0.3826834 -1.069624e-15 -0.9238795 0.3826834 -1.069624e-15 -0.9238795 0.3826834 -1.069624e-15 -0.9238795 0.3826834 0 0 0 -0.9156876 0.383384 0.1205526 -0.9219014 0.3826834 0.06042461 -0.9156876 0.383384 0.1205526 -0.9219014 0.3826834 0.06042461 0.9219014 -0.3826834 -0.06042461 0.9156876 -0.383384 -0.1205526 0.9219014 -0.3826834 -0.06042461 0.9156876 -0.383384 -0.1205526 0 0 0 0 0 0 -0.3826834 0.9238795 1.426773e-16 -0.3826834 0.9238795 1.426773e-16 -0.3826834 0.9238795 1.426773e-16 -0.3826834 0.9238795 1.426773e-16 -0.3826834 0.9238795 1.426773e-16 0.3826834 -0.9238795 -1.426773e-16 0.3826834 -0.9238795 -1.426773e-16 0.3826834 -0.9238795 -1.426773e-16 0.3826834 -0.9238795 -1.426773e-16 0.3826834 -0.9238795 -1.426773e-16 0 0 0 0 0 0 0 0 0 -0.04985888 0.924169 0.3787158 -0.02502869 0.9238795 0.3818641 -0.04985888 0.924169 0.3787158 -0.02502869 0.9238795 0.3818641 0.02502869 -0.9238795 -0.3818641 0.04985888 -0.924169 -0.3787158 0.02502869 -0.9238795 -0.3818641 0.04985888 -0.924169 -0.3787158 0 0 0 0 0 0 -0.3826834 -0.9238795 1.426773e-16 -0.3826834 -0.9238795 1.426773e-16 -0.3826834 -0.9238795 1.426773e-16 -0.3826834 -0.9238795 1.426773e-16 -0.3826834 -0.9238795 1.426773e-16 0.3826834 0.9238795 -1.426773e-16 0.3826834 0.9238795 -1.426773e-16 0.3826834 0.9238795 -1.426773e-16 0.3826834 0.9238795 -1.426773e-16 0.3826834 0.9238795 -1.426773e-16 0 0 0 0 0 0 0 0 0 -0.02502869 -0.9238795 0.3818641 -0.04985888 -0.924169 0.3787158 -0.04985888 -0.924169 0.3787158 -0.02502869 -0.9238795 0.3818641 0.02502869 0.9238795 -0.3818641 0.02502869 0.9238795 -0.3818641 0.04985888 0.924169 -0.3787158 0.04985888 0.924169 -0.3787158 0 0 0 0 0 0 1.071835e-15 -0.9238795 -0.3826834 1.071835e-15 -0.9238795 -0.3826834 1.071835e-15 -0.9238795 -0.3826834 1.071835e-15 -0.9238795 -0.3826834 -1.071835e-15 0.9238795 0.3826834 -1.071835e-15 0.9238795 0.3826834 -1.071835e-15 0.9238795 0.3826834 -1.071835e-15 0.9238795 0.3826834 0 0 0 -0.9156876 -0.383384 0.1205526 -0.9219014 -0.3826834 0.06042461 -0.9156876 -0.383384 0.1205526 -0.9219014 -0.3826834 0.06042461 0.9219014 0.3826834 -0.06042461 0.9156876 0.383384 -0.1205526 0.9219014 0.3826834 -0.06042461 0.9156876 0.383384 -0.1205526 0 0 0 0.3812342 -0.9203809 0.08694556 0.3812342 -0.9203809 0.08694556 0.3812342 -0.9203809 0.08694556 0.3812342 -0.9203809 0.08694556 -0.3812342 0.9203809 -0.08694556 -0.3812342 0.9203809 -0.08694556 -0.3812342 0.9203809 -0.08694556 -0.3812342 0.9203809 -0.08694556 -0.378336 -0.913384 0.150305 -0.378336 -0.913384 0.150305 -0.378336 -0.913384 0.150305 -0.378336 -0.913384 0.150305 0.378336 0.913384 -0.150305 0.378336 0.913384 -0.150305 0.378336 0.913384 -0.150305 0.378336 0.913384 -0.150305 0 0 0 -0.06042461 0.3826834 0.9219014 -0.1205526 0.383384 0.9156876 -0.1205526 0.383384 0.9156876 -0.06042461 0.3826834 0.9219014 0.06042461 -0.3826834 -0.9219014 0.06042461 -0.3826834 -0.9219014 0.1205526 -0.383384 -0.9156876 0.1205526 -0.383384 -0.9156876 0 0 0 -0.1205526 -0.383384 0.9156876 -0.06042461 -0.3826834 0.9219014 -0.1205526 -0.383384 0.9156876 -0.06042461 -0.3826834 0.9219014 0.06042461 0.3826834 -0.9219014 0.1205526 0.383384 -0.9156876 0.06042461 0.3826834 -0.9219014 0.1205526 0.383384 -0.9156876 -0.3812342 -0.9203809 0.08694556 -0.3812342 -0.9203809 0.08694556 -0.3812342 -0.9203809 0.08694556 -0.3812342 -0.9203809 0.08694556 0.3812342 0.9203809 -0.08694556 0.3812342 0.9203809 -0.08694556 0.3812342 0.9203809 -0.08694556 0.3812342 0.9203809 -0.08694556 -0.9203809 -0.3812342 0.08694556 -0.9203809 -0.3812342 0.08694556 -0.9203809 -0.3812342 0.08694556 -0.9203809 -0.3812342 0.08694556 0.9203809 0.3812342 -0.08694556 0.9203809 0.3812342 -0.08694556 0.9203809 0.3812342 -0.08694556 0.9203809 0.3812342 -0.08694556 -0.9203809 0.3812342 0.08694556 -0.9203809 0.3812342 0.08694556 -0.9203809 0.3812342 0.08694556 -0.9203809 0.3812342 0.08694556 0.9203809 -0.3812342 -0.08694556 0.9203809 -0.3812342 -0.08694556 0.9203809 -0.3812342 -0.08694556 0.9203809 -0.3812342 -0.08694556 -0.3812342 0.9203809 0.08694556 -0.3812342 0.9203809 0.08694556 -0.3812342 0.9203809 0.08694556 -0.3812342 0.9203809 0.08694556 0.3812342 -0.9203809 -0.08694556 0.3812342 -0.9203809 -0.08694556 0.3812342 -0.9203809 -0.08694556 0.3812342 -0.9203809 -0.08694556 0.8964112 0.3713057 -0.242031 0.8964112 0.3713057 -0.242031 0.8964112 0.3713057 -0.242031 0.8964112 0.3713057 -0.242031 0.8964112 0.3713057 -0.242031 -0.8964112 -0.3713057 0.242031 -0.8964112 -0.3713057 0.242031 -0.8964112 -0.3713057 0.242031 -0.8964112 -0.3713057 0.242031 -0.8964112 -0.3713057 0.242031 0 0 0 -0.8964112 0.3713057 0.242031 -0.8964112 0.3713057 0.242031 -0.8964112 0.3713057 0.242031 -0.8964112 0.3713057 0.242031 -0.8964112 0.3713057 0.242031 0.8964112 -0.3713057 -0.242031 0.8964112 -0.3713057 -0.242031 0.8964112 -0.3713057 -0.242031 0.8964112 -0.3713057 -0.242031 0.8964112 -0.3713057 -0.242031 -0.3787158 0.924169 0.04985888 -0.3818641 0.9238795 0.02502869 -0.3818641 0.9238795 0.02502869 -0.3787158 0.924169 0.04985888 0.3787158 -0.924169 -0.04985888 0.3787158 -0.924169 -0.04985888 0.3818641 -0.9238795 -0.02502869 0.3818641 -0.9238795 -0.02502869 0 0 0 1.918764e-16 0.9238795 0.3826834 1.918764e-16 0.9238795 0.3826834 1.918764e-16 0.9238795 0.3826834 1.918764e-16 0.9238795 0.3826834 1.918764e-16 0.9238795 0.3826834 -1.918764e-16 -0.9238795 -0.3826834 -1.918764e-16 -0.9238795 -0.3826834 -1.918764e-16 -0.9238795 -0.3826834 -1.918764e-16 -0.9238795 -0.3826834 -1.918764e-16 -0.9238795 -0.3826834 0 0 0 -0.8921185 0.383384 0.2390424 -0.8921185 0.383384 0.2390424 0.8921185 -0.383384 -0.2390424 0.8921185 -0.383384 -0.2390424 0 0 0 0 0 0 0.02502869 0.9238795 -0.3818641 0.06421036 0.9240721 -0.376786 0.04985888 0.924169 -0.3787158 -0.04985888 -0.924169 0.3787158 -0.06421036 -0.9240721 0.376786 -0.02502869 -0.9238795 0.3818641 -0.09886467 0.924169 0.368968 -0.09886467 0.924169 0.368968 0.09886467 -0.924169 -0.368968 0.09886467 -0.924169 -0.368968 0 0 0 0 0 0 0.02502869 -0.9238795 -0.3818641 0.04985888 -0.924169 -0.3787158 0.06421036 -0.9240721 -0.376786 -0.06421036 0.9240721 0.376786 -0.04985888 0.924169 0.3787158 -0.02502869 0.9238795 0.3818641 1.672768e-16 -0.9238795 0.3826834 1.672768e-16 -0.9238795 0.3826834 1.672768e-16 -0.9238795 0.3826834 1.672768e-16 -0.9238795 0.3826834 1.672768e-16 -0.9238795 0.3826834 -1.672768e-16 0.9238795 -0.3826834 -1.672768e-16 0.9238795 -0.3826834 -1.672768e-16 0.9238795 -0.3826834 -1.672768e-16 0.9238795 -0.3826834 -1.672768e-16 0.9238795 -0.3826834 0 0 0 -0.09886467 -0.924169 0.368968 -0.09886467 -0.924169 0.368968 0.09886467 0.924169 -0.368968 0.09886467 0.924169 -0.368968 0 0 0 0 0 0 -0.3818641 -0.9238795 0.02502869 -0.3787158 -0.924169 0.04985888 -0.3818641 -0.9238795 0.02502869 -0.3787158 -0.924169 0.04985888 0.3787158 0.924169 -0.04985888 0.3818641 0.9238795 -0.02502869 0.3787158 0.924169 -0.04985888 0.3818641 0.9238795 -0.02502869 0 0 0 -0.8921185 -0.383384 0.2390424 -0.8921185 -0.383384 0.2390424 0.8921185 0.383384 -0.2390424 0.8921185 0.383384 -0.2390424 0 0 0 -0.2390424 0.383384 0.8921185 -0.2390424 0.383384 0.8921185 0.2390424 -0.383384 -0.8921185 0.2390424 -0.383384 -0.8921185 0 0 0 -0.2390424 -0.383384 0.8921185 -0.2390424 -0.383384 0.8921185 0.2390424 0.383384 -0.8921185 0.2390424 0.383384 -0.8921185 -0.368968 0.924169 0.09886467 -0.368968 0.924169 0.09886467 0.368968 -0.924169 -0.09886467 0.368968 -0.924169 -0.09886467 0 0 0 0.3787158 0.924169 -0.04985888 0.376786 0.9240721 -0.06421036 0.3818641 0.9238795 -0.02502869 -0.3818641 -0.9238795 0.02502869 -0.376786 -0.9240721 0.06421036 -0.3787158 -0.924169 0.04985888 -0.853285 0.383384 0.3534422 -0.853285 0.383384 0.3534422 0.853285 -0.383384 -0.3534422 0.853285 -0.383384 -0.3534422 0 0 0 0 0 0 0.09886467 0.924169 -0.368968 0.07465783 0.9238795 -0.3753303 0.09886467 0.924169 -0.368968 -0.09886467 -0.924169 0.368968 -0.07465783 -0.9238795 0.3753303 -0.09886467 -0.924169 0.368968 0 0 0 0 0 0 -0.1461788 0.924169 0.352907 -0.1230096 0.9238795 0.3623745 -0.1461788 0.924169 0.352907 -0.1230096 0.9238795 0.3623745 0.1230096 -0.9238795 -0.3623745 0.1461788 -0.924169 -0.352907 0.1230096 -0.9238795 -0.3623745 0.1461788 -0.924169 -0.352907 0 0 0 0 0 0 0 0 0 0 0 0 0.07465783 -0.9238795 -0.3753303 0.09886467 -0.924169 -0.368968 0.09886467 -0.924169 -0.368968 -0.09886467 0.924169 0.368968 -0.07465783 0.9238795 0.3753303 -0.09886467 0.924169 0.368968 0 0 0 0 0 0 0.3787158 -0.924169 -0.04985888 0.3818641 -0.9238795 -0.02502869 0.376786 -0.9240721 -0.06421036 -0.376786 0.9240721 0.06421036 -0.3818641 0.9238795 0.02502869 -0.3787158 0.924169 0.04985888 -0.1230096 -0.9238795 0.3623745 -0.1461788 -0.924169 0.352907 -0.1461788 -0.924169 0.352907 -0.1230096 -0.9238795 0.3623745 0.1230096 0.9238795 -0.3623745 0.1461788 0.924169 -0.352907 0.1230096 0.9238795 -0.3623745 0.1461788 0.924169 -0.352907 0 0 0 0 0 0 0 0 0 0 0 0 -0.368968 -0.924169 0.09886467 -0.368968 -0.924169 0.09886467 0.368968 0.924169 -0.09886467 0.368968 0.924169 -0.09886467 0 0 0 -0.853285 -0.383384 0.3534422 -0.853285 -0.383384 0.3534422 0.853285 0.383384 -0.3534422 0.853285 0.383384 -0.3534422 0 0 0 -0.2969713 0.3826834 0.8748494 -0.3534422 0.383384 0.853285 -0.3534422 0.383384 0.853285 -0.2969713 0.3826834 0.8748494 0.2969713 -0.3826834 -0.8748494 0.2969713 -0.3826834 -0.8748494 0.3534422 -0.383384 -0.853285 0.3534422 -0.383384 -0.853285 0 0 0 0 0 0 -0.3534422 -0.383384 0.853285 -0.2969713 -0.3826834 0.8748494 -0.3534422 -0.383384 0.853285 -0.2969713 -0.3826834 0.8748494 0.2969713 0.3826834 -0.8748494 0.2969713 0.3826834 -0.8748494 0.3534422 0.383384 -0.853285 0.3534422 0.383384 -0.853285 -0.352907 0.924169 0.1461788 -0.352907 0.924169 0.1461788 0.352907 -0.924169 -0.1461788 0.352907 -0.924169 -0.1461788 0 0 0 0.368968 0.924169 -0.09886467 0.3753303 0.9238795 -0.07465783 0.368968 0.924169 -0.09886467 -0.368968 -0.924169 0.09886467 -0.368968 -0.924169 0.09886467 -0.3753303 -0.9238795 0.07465783 0 0 0 0 0 0 -0.7998516 0.383384 0.4617945 -0.7998516 0.383384 0.4617945 0.7998516 -0.383384 -0.4617945 0.7998516 -0.383384 -0.4617945 0 0 0 0 0 0 0.18024 0.3826834 -0.9061274 0.2390424 0.383384 -0.8921185 0.2390424 0.383384 -0.8921185 0.18024 0.3826834 -0.9061274 -0.18024 -0.3826834 0.9061274 -0.18024 -0.3826834 0.9061274 -0.2390424 -0.383384 0.8921185 -0.2390424 -0.383384 0.8921185 0 0 0 0 0 0 0.1461788 0.924169 -0.352907 0.1230096 0.9238795 -0.3623745 0.1461788 0.924169 -0.352907 0.1230096 0.9238795 -0.3623745 -0.1230096 -0.9238795 0.3623745 -0.1461788 -0.924169 0.352907 -0.1230096 -0.9238795 0.3623745 -0.1461788 -0.924169 0.352907 0 0 0 0 0 0 -0.1909919 0.924169 0.3308076 -0.1909919 0.924169 0.3308076 0.1909919 -0.924169 -0.3308076 0.1909919 -0.924169 -0.3308076 0 0 0 0 0 0 0.1230096 -0.9238795 -0.3623745 0.1461788 -0.924169 -0.352907 0.1461788 -0.924169 -0.352907 0.1230096 -0.9238795 -0.3623745 -0.1230096 0.9238795 0.3623745 -0.1461788 0.924169 0.352907 -0.1230096 0.9238795 0.3623745 -0.1461788 0.924169 0.352907 0 0 0 0 0 0 0.2390424 -0.383384 -0.8921185 0.18024 -0.3826834 -0.9061274 0.2390424 -0.383384 -0.8921185 0.18024 -0.3826834 -0.9061274 -0.18024 0.3826834 0.9061274 -0.2390424 0.383384 0.8921185 -0.18024 0.3826834 0.9061274 -0.2390424 0.383384 0.8921185 0 0 0 0 0 0 0.368968 -0.924169 -0.09886467 0.3753303 -0.9238795 -0.07465783 0.368968 -0.924169 -0.09886467 -0.368968 0.924169 0.09886467 -0.368968 0.924169 0.09886467 -0.3753303 0.9238795 0.07465783 0 0 0 0 0 0 -0.1909919 -0.924169 0.3308076 -0.1909919 -0.924169 0.3308076 0.1909919 0.924169 -0.3308076 0.1909919 0.924169 -0.3308076 0 0 0 0 0 0 -0.352907 -0.924169 0.1461788 -0.352907 -0.924169 0.1461788 0.352907 0.924169 -0.1461788 0.352907 0.924169 -0.1461788 0 0 0 -0.7998516 -0.383384 0.4617945 -0.7998516 -0.383384 0.4617945 0.7998516 0.383384 -0.4617945 0.7998516 0.383384 -0.4617945 0 0 0 -0.4617945 0.383384 0.7998516 -0.4617945 0.383384 0.7998516 0.4617945 -0.383384 -0.7998516 0.4617945 -0.383384 -0.7998516 0 0 0 -0.4617945 -0.383384 0.7998516 -0.4617945 -0.383384 0.7998516 0.4617945 0.383384 -0.7998516 0.4617945 0.383384 -0.7998516 -0.3308076 0.924169 0.1909919 -0.3308076 0.924169 0.1909919 0.3308076 -0.924169 -0.1909919 0.3308076 -0.924169 -0.1909919 0 0 0 0.352907 0.924169 -0.1461788 0.352907 0.924169 -0.1461788 -0.352907 -0.924169 0.1461788 -0.352907 -0.924169 0.1461788 0 0 0 0.8921185 0.383384 -0.2390424 0.6884592 0.4018641 -0.6037625 0.9061274 0.3826834 -0.18024 -0.9061274 -0.3826834 0.18024 -0.6884592 -0.4018641 0.6037625 -0.8921185 -0.383384 0.2390424 -0.7327325 0.383384 0.5622454 -0.7327325 0.383384 0.5622454 0.7327325 -0.383384 -0.5622454 0.7327325 -0.383384 -0.5622454 0 0 0 0 0 0 0.2969713 0.3826834 -0.8748494 0.3534422 0.383384 -0.853285 -0.2969713 -0.3826834 0.8748494 -0.3534422 -0.383384 0.853285 0.1909919 0.924169 -0.3308076 0.1909919 0.924169 -0.3308076 -0.1909919 -0.924169 0.3308076 -0.1909919 -0.924169 0.3308076 0 0 0 -0.232537 0.924169 0.3030481 -0.232537 0.924169 0.3030481 0.232537 -0.924169 -0.3030481 0.232537 -0.924169 -0.3030481 0 0 0 0 0 0 0.1909919 -0.924169 -0.3308076 0.1909919 -0.924169 -0.3308076 -0.1909919 0.924169 0.3308076 -0.1909919 0.924169 0.3308076 0 0 0 0.6884592 -0.4018641 -0.6037625 0.2969713 -0.3826834 -0.8748494 0.3534422 -0.383384 -0.853285 -0.2969713 0.3826834 0.8748494 -0.6884592 0.4018641 0.6037625 -0.3534422 0.383384 0.853285 0.352907 -0.924169 -0.1461788 0.352907 -0.924169 -0.1461788 -0.352907 0.924169 0.1461788 -0.352907 0.924169 0.1461788 0 0 0 0.8921185 -0.383384 -0.2390424 0.9061274 -0.3826834 -0.18024 -0.9061274 0.3826834 0.18024 -0.8921185 0.383384 0.2390424 -0.232537 -0.924169 0.3030481 -0.232537 -0.924169 0.3030481 0.232537 0.924169 -0.3030481 0.232537 0.924169 -0.3030481 0 0 0 0 0 0 -0.3308076 -0.924169 0.1909919 -0.3308076 -0.924169 0.1909919 0.3308076 0.924169 -0.1909919 0.3308076 0.924169 -0.1909919 0 0 0 -0.7327325 -0.383384 0.5622454 -0.7327325 -0.383384 0.5622454 0.7327325 0.383384 -0.5622454 0.7327325 0.383384 -0.5622454 0 0 0 -0.5622454 0.383384 0.7327325 -0.5622454 0.383384 0.7327325 0.5622454 -0.383384 -0.7327325 0.5622454 -0.383384 -0.7327325 0 0 0 -0.5622454 -0.383384 0.7327325 -0.5622454 -0.383384 0.7327325 0.5622454 0.383384 -0.7327325 0.5622454 0.383384 -0.7327325 -0.3030481 0.924169 0.232537 -0.3030481 0.924169 0.232537 0.3030481 -0.924169 -0.232537 0.3030481 -0.924169 -0.232537 0 0 0 0.3308076 0.924169 -0.1909919 0.3308076 0.924169 -0.1909919 -0.3308076 -0.924169 0.1909919 -0.3308076 -0.924169 0.1909919 0 0 0 0.853285 0.383384 -0.3534422 -0.853285 -0.383384 0.3534422 -0.6530761 0.383384 0.6530761 -0.6530761 0.383384 0.6530761 0.6530761 -0.383384 -0.6530761 0.6530761 -0.383384 -0.6530761 0 0 0 0 0 0 0.2969713 0.3826834 -0.8748494 0.2969713 0.3826834 -0.8748494 0.2969713 0.3826834 -0.8748494 0.2969713 0.3826834 -0.8748494 -0.2969713 -0.3826834 0.8748494 -0.2969713 -0.3826834 0.8748494 -0.2969713 -0.3826834 0.8748494 -0.2969713 -0.3826834 0.8748494 0 0 0 0 0 0 0.4617945 0.383384 -0.7998516 -0.4617945 -0.383384 0.7998516 0.232537 0.924169 -0.3030481 0.232537 0.924169 -0.3030481 -0.232537 -0.924169 0.3030481 -0.232537 -0.924169 0.3030481 0 0 0 -0.2701033 0.924169 0.2701033 -0.2701033 0.924169 0.2701033 0.2701033 -0.924169 -0.2701033 0.2701033 -0.924169 -0.2701033 0 0 0 0.232537 -0.924169 -0.3030481 0.232537 -0.924169 -0.3030481 -0.232537 0.924169 0.3030481 -0.232537 0.924169 0.3030481 0 0 0 0.4617945 -0.383384 -0.7998516 -0.4617945 0.383384 0.7998516 0.2969713 -0.3826834 -0.8748494 0.2969713 -0.3826834 -0.8748494 0.2969713 -0.3826834 -0.8748494 0.2969713 -0.3826834 -0.8748494 -0.2969713 0.3826834 0.8748494 -0.2969713 0.3826834 0.8748494 -0.2969713 0.3826834 0.8748494 -0.2969713 0.3826834 0.8748494 0.3308076 -0.924169 -0.1909919 0.3308076 -0.924169 -0.1909919 -0.3308076 0.924169 0.1909919 -0.3308076 0.924169 0.1909919 0 0 0 0.853285 -0.383384 -0.3534422 -0.853285 0.383384 0.3534422 -0.2701033 -0.924169 0.2701033 -0.2701033 -0.924169 0.2701033 0.2701033 0.924169 -0.2701033 0.2701033 0.924169 -0.2701033 0 0 0 0 0 0 -0.3030481 -0.924169 0.232537 -0.3030481 -0.924169 0.232537 0.3030481 0.924169 -0.232537 0.3030481 0.924169 -0.232537 0 0 0 -0.6530761 -0.383384 0.6530761 -0.6530761 -0.383384 0.6530761 0.6530761 0.383384 -0.6530761 0.6530761 0.383384 -0.6530761 0.3030481 0.924169 -0.232537 0.3030481 0.924169 -0.232537 -0.3030481 -0.924169 0.232537 -0.3030481 -0.924169 0.232537 0 0 0 0.7998516 0.383384 -0.4617945 -0.7998516 -0.383384 0.4617945 0.5622454 0.383384 -0.7327325 -0.5622454 -0.383384 0.7327325 0.2701033 0.924169 -0.2701033 0.2701033 0.924169 -0.2701033 0.2701033 0.924169 -0.2701033 -0.2701033 -0.924169 0.2701033 -0.2701033 -0.924169 0.2701033 -0.2701033 -0.924169 0.2701033 0 0 0 0.2701033 -0.924169 -0.2701033 0.2701033 -0.924169 -0.2701033 0.2701033 -0.924169 -0.2701033 -0.2701033 0.924169 0.2701033 -0.2701033 0.924169 0.2701033 -0.2701033 0.924169 0.2701033 0 0 0 0.5622454 -0.383384 -0.7327325 -0.5622454 0.383384 0.7327325 0.3030481 -0.924169 -0.232537 0.3030481 -0.924169 -0.232537 -0.3030481 0.924169 0.232537 -0.3030481 0.924169 0.232537 0 0 0 0.7998516 -0.383384 -0.4617945 -0.7998516 0.383384 0.4617945 0.7327325 0.383384 -0.5622454 -0.7327325 -0.383384 0.5622454 0.6530761 0.383384 -0.6530761 -0.6530761 -0.383384 0.6530761 0.6530761 -0.383384 -0.6530761 -0.6530761 0.383384 0.6530761 0.7327325 -0.383384 -0.5622454 -0.7327325 0.383384 0.5622454</float_array>
                    <technique_common>
                        <accessor count="966" source="#ID23" stride="3">
                            <param name="X" type="float" />
                            <param name="Y" type="float" />
                            <param name="Z" type="float" />
                        </accessor>
                    </technique_common>
                </source>
                <vertices id="ID21">
                    <input semantic="POSITION" source="#ID19" />
                    <input semantic="NORMAL" source="#ID20" />
                </vertices>
                <triangles count="302" material="Material2">
                    <input offset="0" semantic="VERTEX" source="#ID21" />
                    <p>0 1 2 1 0 3 3 0 4 4 0 5 18 19 20 19 18 21 19 21 22 19 22 23 32 33 34 33 32 35 35 32 36 35 36 37 46 47 48 47 46 49 49 46 50 59 60 61 60 59 62 69 70 71 70 69 72 79 80 81 80 79 82 87 88 89 88 87 90 96 97 98 97 96 99 105 106 107 106 105 108 114 115 116 115 114 117 117 114 118 125 126 127 126 125 128 133 134 135 134 133 136 141 142 143 142 141 144 151 152 153 152 151 154 161 162 163 162 161 164 169 170 171 175 176 177 176 175 178 176 178 179 179 178 180 190 191 192 191 190 193 199 200 201 200 199 202 207 208 209 208 207 210 217 218 219 223 224 225 224 223 226 226 223 227 226 227 228 236 237 238 237 236 239 245 246 247 246 245 248 254 255 256 261 262 263 267 268 269 268 267 270 270 267 271 270 271 272 272 271 273 272 273 274 288 289 290 289 288 291 296 297 298 297 296 299 297 299 300 300 299 301 300 301 302 302 301 303 315 316 317 316 315 318 324 325 326 325 324 327 333 334 335 334 333 336 343 344 345 344 343 346 344 346 347 356 357 358 357 356 359 366 367 368 367 366 369 369 366 370 379 380 381 380 379 382 389 390 391 390 389 392 398 399 400 399 398 401 407 408 409 408 407 410 415 416 417 416 415 418 424 425 426 425 424 427 433 434 435 434 433 436 441 442 443 442 441 444 449 450 451 450 449 452 457 458 459 458 457 460 465 466 467 466 465 468 473 474 475 474 473 476 476 473 477 484 485 486 485 484 487 487 484 488 494 495 496 495 494 497 503 504 505 504 503 506 506 503 507 514 335 515 335 514 333 520 521 522 526 358 527 358 526 356 532 533 534 538 539 540 539 538 541 541 538 542 381 549 550 549 381 380 555 556 557 556 555 558 564 400 565 400 564 398 426 569 570 569 426 425 574 435 575 435 574 433 494 578 497 578 494 579 583 584 585 589 515 590 515 589 514 595 596 597 596 595 521 521 595 522 603 604 605 604 603 527 527 603 606 527 606 526 615 616 617 616 615 534 616 534 533 623 624 625 629 630 631 630 629 550 630 550 632 632 550 549 641 556 558 556 641 642 646 565 647 565 646 564 651 652 653 652 651 654 654 651 570 654 570 569 661 662 663 662 661 664 662 664 575 575 664 574 579 669 578 669 579 670 584 674 675 674 584 676 676 584 583 682 590 683 590 682 589 688 689 690 689 688 691 698 699 700 699 698 597 597 698 701 597 701 595 708 605 709 605 708 603 714 715 716 715 714 617 715 617 717 717 617 616 724 725 726 725 724 727 734 625 735 625 734 736 625 736 623 631 742 743 742 631 630 748 642 641 642 748 749 753 647 754 647 753 646 653 758 759 758 653 652 763 663 764 663 763 661 670 767 669 767 670 768 676 772 674 772 676 773 777 778 779 783 683 784 683 783 682 789 778 790 778 789 689 689 789 690 793 700 794 700 793 698 798 709 799 709 798 708 716 804 805 804 716 715 809 810 811 810 809 724 810 724 726 815 736 734 736 815 816 809 820 821 743 824 825 824 743 742 830 749 748 749 830 831 835 754 836 754 835 753 759 840 841 840 759 758 845 764 846 764 845 763 768 849 767 849 768 850 773 854 772 854 773 855 859 778 777 861 784 862 784 861 783 867 868 869 868 867 870 778 877 790 879 794 880 794 879 793 884 799 885 799 884 798 805 889 890 889 805 804 809 811 894 896 897 898 897 896 899 904 816 815 816 904 905 809 909 820 825 911 912 911 825 824 917 831 830 831 917 918 922 836 923 836 922 835 841 861 862 861 841 840 923 846 922 846 923 845 850 885 849 885 850 884 855 926 854 926 855 927 931 778 859 778 933 877 935 880 936 880 935 879 879 935 937 890 942 943 942 890 889 942 889 944 809 894 949 951 905 904 905 951 952 809 956 909 912 918 917 918 912 911 927 936 926 936 927 935 935 927 937 958 778 931 778 960 933 943 952 951 952 943 942 952 942 944 809 949 962 809 964 956 960 778 958 809 962 964</p>
                </triangles>
                <triangles count="302" material="Material3">
                    <input offset="0" semantic="VERTEX" source="#ID21" />
                    <p>6 7 8 8 7 9 9 7 10 11 10 7 24 25 26 25 27 26 27 28 26 29 26 28 38 39 40 39 41 40 40 41 42 43 42 41 51 52 53 53 52 54 55 54 52 63 64 65 66 65 64 73 74 75 76 75 74 83 84 85 86 85 84 91 92 93 94 93 92 100 101 102 103 102 101 109 110 111 112 111 110 119 120 121 121 120 122 123 122 120 129 130 131 132 131 130 137 138 139 140 139 138 145 146 147 148 147 146 155 156 157 158 157 156 165 166 167 168 167 166 172 173 174 181 182 183 183 182 184 182 185 184 186 184 185 194 195 196 197 196 195 203 204 205 206 205 204 211 212 213 214 213 212 220 221 222 229 230 231 230 232 231 231 232 233 234 233 232 240 241 242 243 242 241 249 250 251 252 251 250 257 258 259 264 265 266 275 276 277 276 278 277 277 278 279 278 280 279 279 280 281 282 281 280 292 293 294 295 294 293 304 305 306 306 305 307 305 308 307 307 308 309 308 310 309 311 309 310 319 320 321 322 321 320 328 329 330 331 330 329 337 338 339 340 339 338 348 349 350 349 351 350 352 350 351 360 361 362 363 362 361 371 372 373 373 372 374 375 374 372 383 384 385 386 385 384 393 394 395 396 395 394 402 403 404 405 404 403 411 412 413 414 413 412 419 420 421 422 421 420 428 429 430 431 430 429 437 438 439 440 439 438 445 446 447 448 447 446 453 454 455 456 455 454 461 462 463 464 463 462 469 470 471 472 471 470 478 479 480 480 479 481 482 481 479 489 490 491 491 490 492 493 492 490 498 499 500 501 500 499 508 509 510 510 509 511 512 511 509 338 516 340 517 340 516 523 524 525 361 528 363 529 363 528 535 536 537 543 544 545 545 544 546 547 546 544 385 386 551 552 551 386 559 560 561 562 561 560 403 566 405 567 405 566 430 431 571 572 571 431 438 576 440 577 440 576 580 499 581 498 581 499 586 587 588 516 591 517 592 517 591 523 598 524 524 598 599 600 599 598 528 607 529 607 608 529 529 608 609 610 609 608 536 535 618 535 619 618 620 618 619 626 627 628 551 552 633 633 552 634 552 635 634 636 634 635 643 644 561 559 561 644 566 648 567 649 567 648 571 572 655 572 656 655 655 656 657 658 657 656 576 665 577 577 665 666 665 667 666 668 666 667 671 580 672 581 672 580 588 587 677 677 587 678 679 678 587 591 684 592 685 592 684 692 693 694 695 694 693 598 702 600 702 703 600 600 703 704 705 704 703 608 710 610 711 610 710 618 620 718 718 620 719 620 720 719 721 719 720 728 729 730 731 730 729 628 737 626 737 738 626 739 626 738 634 636 744 745 744 636 750 751 643 644 643 751 648 755 649 756 649 755 657 658 760 761 760 658 667 765 668 766 668 765 769 671 770 672 770 671 774 677 775 678 775 677 780 781 782 684 785 685 786 685 785 695 791 694 694 791 781 792 781 791 703 795 705 796 705 795 710 800 711 801 711 800 719 721 806 807 806 721 731 729 812 729 813 812 814 812 813 817 818 737 738 737 818 822 823 813 744 745 826 827 826 745 832 833 750 751 750 833 755 837 756 838 756 837 760 761 842 843 842 761 765 847 766 848 766 847 851 769 852 770 852 769 856 774 857 775 857 774 782 781 860 785 863 786 864 786 863 871 872 873 874 873 872 792 878 781 795 881 796 882 796 881 800 886 801 887 801 886 806 807 891 892 891 807 895 814 813 900 901 902 903 902 901 906 907 817 818 817 907 823 910 813 826 827 913 914 913 827 919 920 832 833 832 920 837 924 838 925 838 924 842 843 863 864 863 843 847 925 848 924 848 925 886 851 887 852 887 851 928 856 929 857 929 856 860 781 932 878 934 781 938 939 881 881 939 882 940 882 939 945 891 946 891 892 946 947 946 892 950 895 813 953 954 906 907 906 954 910 957 813 913 914 919 920 919 914 938 928 939 939 928 940 929 940 928 932 781 959 934 961 781 945 946 953 946 947 953 954 953 947 963 950 813 957 965 813 959 781 961 965 963 813</p>
                </triangles>
                <lines count="199" material="Material4">
                    <input offset="0" semantic="VERTEX" source="#ID21" />
                    <p>12 13 13 14 14 15 15 16 17 16 12 17 30 12 30 31 31 15 44 12 44 45 15 45 56 57 57 16 15 58 58 56 67 16 68 15 68 67 16 77 77 78 78 17 44 78 95 44 95 30 104 95 31 104 113 31 113 68 124 56 124 31 45 77 104 45 149 150 150 57 149 56 159 160 16 159 57 160 67 159 187 188 187 67 58 68 189 58 188 189 159 198 198 77 215 216 215 31 104 216 215 113 188 235 235 113 244 149 244 124 253 215 253 124 45 260 77 260 260 104 283 244 284 283 285 284 286 285 287 286 150 287 287 160 160 312 312 313 313 314 314 253 312 323 159 323 332 187 332 159 341 187 342 188 159 353 353 354 354 355 355 198 198 364 77 365 216 376 376 377 377 378 378 215 104 387 216 388 235 397 397 215 406 235 283 253 423 215 314 423 260 432 284 314 285 313 286 312 189 313 483 189 483 423 323 483 502 332 332 513 513 354 518 341 519 342 364 530 365 531 377 548 548 397 387 553 388 554 563 397 568 406 432 573 582 502 593 518 594 519 601 602 530 611 611 612 614 613 531 614 622 621 553 637 637 638 640 639 554 640 645 563 650 568 660 659 573 660 673 582 680 681 686 593 687 594 602 706 706 707 612 712 613 713 722 723 723 622 741 740 638 746 639 747 752 645 757 650 659 762 771 673 776 680 787 686 788 687 707 797 712 802 713 803 808 722 740 819 746 828 747 829 834 752 839 757 762 844 853 771 858 776 865 787 866 788 876 875 797 883 802 888 803 865 893 808 819 908 828 915 829 916 921 834 915 839 844 866 888 853 930 858 883 941 948 893 908 955 916 921 941 930 955 948</p>
                </lines>
                <lines count="88" material="Material5">
                    <input offset="0" semantic="VERTEX" source="#ID21" />
                    <p />
                </lines>
            </mesh>
        </geometry>
        <geometry id="ID24">
            <mesh>
                <source id="ID25">
                    <float_array id="ID28" count="135">53.66456 39.37008 276.0232 67.71654 39.37008 274.1732 53.54331 39.37008 274.1732 67.71654 39.37008 288.3465 54.02625 39.37008 277.8415 54.62218 39.37008 279.5971 55.44216 39.37008 281.2598 56.47216 39.37008 282.8013 57.69455 39.37008 284.1952 59.08842 39.37008 285.4176 60.62992 39.37008 286.4476 62.29268 39.37008 287.2676 63.19074 39.37008 287.5724 64.04823 39.37008 287.8635 65.86656 39.37008 288.2252 65.86656 39.37008 288.2252 64.04823 39.37008 287.8635 67.71654 39.37008 288.3465 63.19074 39.37008 287.5724 62.29268 39.37008 287.2676 60.62992 39.37008 286.4476 59.08842 39.37008 285.4176 57.69455 39.37008 284.1952 56.47216 39.37008 282.8013 55.44216 39.37008 281.2598 54.62218 39.37008 279.5971 54.02625 39.37008 277.8415 53.66456 39.37008 276.0232 67.71654 39.37008 274.1732 53.54331 39.37008 274.1732 53.54331 39.37008 274.1732 67.71654 39.37008 274.1732 53.66456 39.37008 276.0232 54.02625 39.37008 277.8415 54.62218 39.37008 279.5971 55.44216 39.37008 281.2598 56.47216 39.37008 282.8013 57.69455 39.37008 284.1952 59.08842 39.37008 285.4176 60.62992 39.37008 286.4476 62.29268 39.37008 287.2676 63.19074 39.37008 287.5724 64.04823 39.37008 287.8635 65.86656 39.37008 288.2252 67.71654 39.37008 288.3465</float_array>
                    <technique_common>
                        <accessor count="45" source="#ID28" stride="3">
                            <param name="X" type="float" />
                            <param name="Y" type="float" />
                            <param name="Z" type="float" />
                        </accessor>
                    </technique_common>
                </source>
                <source id="ID26">
                    <float_array id="ID29" count="135">0 1 0 0 1 0 0 1 0 0 1 0 0 1 0 0 1 0 0 1 0 0 1 0 0 1 0 0 1 0 0 1 0 0 1 0 0 1 0 0 1 0 0 1 0 -0 -1 -0 -0 -1 -0 -0 -1 -0 -0 -1 -0 -0 -1 -0 -0 -1 -0 -0 -1 -0 -0 -1 -0 -0 -1 -0 -0 -1 -0 -0 -1 -0 -0 -1 -0 -0 -1 -0 -0 -1 -0 -0 -1 -0 0 0 0 0 0 0 0 0 0 0 0 0 0 0 0 0 0 0 0 0 0 0 0 0 0 0 0 0 0 0 0 0 0 0 0 0 0 0 0 0 0 0 0 0 0</float_array>
                    <technique_common>
                        <accessor count="45" source="#ID29" stride="3">
                            <param name="X" type="float" />
                            <param name="Y" type="float" />
                            <param name="Z" type="float" />
                        </accessor>
                    </technique_common>
                </source>
                <vertices id="ID27">
                    <input semantic="POSITION" source="#ID25" />
                    <input semantic="NORMAL" source="#ID26" />
                </vertices>
                <triangles count="13" material="Material2">
                    <input offset="0" semantic="VERTEX" source="#ID27" />
                    <p>0 1 2 1 0 3 3 0 4 3 4 5 3 5 6 3 6 7 3 7 8 3 8 9 3 9 10 3 10 11 3 11 12 3 12 13 3 13 14</p>
                </triangles>
                <triangles count="13" material="Material3">
                    <input offset="0" semantic="VERTEX" source="#ID27" />
                    <p>15 16 17 16 18 17 18 19 17 19 20 17 20 21 17 21 22 17 22 23 17 23 24 17 24 25 17 25 26 17 26 27 17 17 27 28 29 28 27</p>
                </triangles>
                <lines count="15" material="Material4">
                    <input offset="0" semantic="VERTEX" source="#ID27" />
                    <p>30 31 30 32 32 33 33 34 34 35 35 36 36 37 37 38 38 39 39 40 40 41 41 42 42 43 43 44 31 44</p>
                </lines>
            </mesh>
        </geometry>
    </library_geometries>
    <library_materials>
        <material id="ID5" name="_0129_WhiteSmoke">
            <instance_effect url="#ID6" />
        </material>
        <material id="ID11" name="material">
            <instance_effect url="#ID10" />
        </material>
        <material id="ID12" name="edge_color245245245255">
            <instance_effect url="#ID13" />
        </material>
        <material id="ID14" name="edge_color000255">
            <instance_effect url="#ID15" />
        </material>
    </library_materials>
    <library_effects>
        <effect id="ID6">
            <profile_COMMON>
                <technique sid="COMMON">
                    <lambert>
                        <diffuse>
                            <color>0.9607843 0.9607843 0.9607843 1</color>
                        </diffuse>
                    </lambert>
                </technique>
            </profile_COMMON>
        </effect>
        <effect id="ID10">
            <profile_COMMON>
                <technique sid="COMMON">
                    <lambert>
                        <diffuse>
                            <color>0.6431373 0.6980392 0.7333333 1</color>
                        </diffuse>
                    </lambert>
                </technique>
            </profile_COMMON>
        </effect>
        <effect id="ID13">
            <profile_COMMON>
                <technique sid="COMMON">
                    <constant>
                        <transparent opaque="A_ONE">
                            <color>0.9607843 0.9607843 0.9607843 1</color>
                        </transparent>
                        <transparency>
                            <float>1</float>
                        </transparency>
                    </constant>
                </technique>
            </profile_COMMON>
        </effect>
        <effect id="ID15">
            <profile_COMMON>
                <technique sid="COMMON">
                    <constant>
                        <transparent opaque="A_ONE">
                            <color>0 0 0 1</color>
                        </transparent>
                        <transparency>
                            <float>1</float>
                        </transparency>
                    </constant>
                </technique>
            </profile_COMMON>
        </effect>
    </library_effects>
    <scene>
        <instance_visual_scene url="#ID2" />
    </scene>
</COLLADA>
